<svg id="图层_1" data-name="图层 1" xmlns="http://www.w3.org/2000/svg" viewBox="0 0 551.47 258"><defs><style>.cls-1{fill:#fff;}</style></defs><title>文案+花边-2款定稿</title><path class="cls-1" d="M66.78,115.24l-1.86-1.77a59.38,59.38,0,0,1,6.17-9q2.39-2.64,4.3-2.64a2.3,2.3,0,0,1,2.12,1.57,11.11,11.11,0,0,1,.73,4.57q0,3.9-2.07,17.68l-.13,1q-.5,3.1-1.3,8.09a82.89,82.89,0,0,0-1.17,8.67,2.73,2.73,0,0,0,.23,1.26q.23.45.57.45.93,0,4.74-5.43a94.79,94.79,0,0,0,7.4-12.7q2.33-4.77,4.91-11.25t5.16-14h2.17q-2.64,12.83-4.1,23.08a116.54,116.54,0,0,0-1.47,15,11,11,0,0,0,.69,4.38,2.17,2.17,0,0,0,2,1.54q2.13,0,5.73-3.85a54.24,54.24,0,0,0,7.18-10.12,79,79,0,0,0,6-13.31A112.76,112.76,0,0,0,119,102.6l3-1.15a132,132,0,0,1-5.14,16.42,95.58,95.58,0,0,1-6.5,13.72,60.19,60.19,0,0,1-8.49,11.46q-4.22,4.27-6.88,4.28a3.39,3.39,0,0,1-3.19-2.19,15.73,15.73,0,0,1-1-6.55,89.81,89.81,0,0,1,.83-11.06q.84-6.47,2.79-16.66a151.35,151.35,0,0,1-12.11,25.88Q75.9,147.2,73,147.2a1.5,1.5,0,0,1-1.32-1,5.6,5.6,0,0,1-.51-2.59,50.17,50.17,0,0,1,.47-5.71q.46-3.74,1.95-12.81,1.43-8.9,2-13.49a60.08,60.08,0,0,0,.59-6.74,4.19,4.19,0,0,0-.25-1.72.85.85,0,0,0-.84-.51c-.82,0-1.86.93-3.11,2.79A88.52,88.52,0,0,0,66.78,115.24Z"/><path class="cls-1" d="M95,147.87a3.92,3.92,0,0,1-3.68-2.49,16.12,16.12,0,0,1-1.1-6.79,89.25,89.25,0,0,1,.84-11.13c.39-3,1-6.7,1.73-11A139.33,139.33,0,0,1,82.73,137c-5.86,9.6-8.34,10.71-9.69,10.71a2,2,0,0,1-1.8-1.26,6.16,6.16,0,0,1-.57-2.84,49.51,49.51,0,0,1,.47-5.78c.31-2.52,1-6.84,2-12.83s1.63-10.44,2-13.47a59,59,0,0,0,.59-6.67,3.75,3.75,0,0,0-.19-1.48.34.34,0,0,0-.36-.21c-.28,0-1.11.25-2.66,2.55a89.24,89.24,0,0,0-5.21,9.72.54.54,0,0,1-.39.3.52.52,0,0,1-.47-.14l-1.86-1.77a.53.53,0,0,1-.09-.66,60.08,60.08,0,0,1,6.23-9.14c1.71-1.89,3.25-2.81,4.7-2.81A2.82,2.82,0,0,1,78,103.13a11.91,11.91,0,0,1,.78,4.8c0,2.64-.69,8.46-2.09,17.76l-.12,1-1.3,8.11a81.52,81.52,0,0,0-1.17,8.58,2.22,2.22,0,0,0,.17,1,.43.43,0,0,0,.12.16c.13-.05,1-.57,4.27-5.2A95.46,95.46,0,0,0,86,126.67c1.53-3.13,3.17-6.9,4.89-11.22s3.44-9,5.15-14a.55.55,0,0,1,.51-.36h2.17a.53.53,0,0,1,.42.2.55.55,0,0,1,.11.45c-1.75,8.51-3.13,16.26-4.1,23a118.86,118.86,0,0,0-1.46,15,10.53,10.53,0,0,0,.64,4.16c.5,1.09,1.08,1.21,1.48,1.21.87,0,2.5-.63,5.33-3.66a54.28,54.28,0,0,0,7.11-10,79,79,0,0,0,6-13.22,112.76,112.76,0,0,0,4.26-15.74.54.54,0,0,1,.33-.4l3-1.14a.53.53,0,0,1,.55.1.53.53,0,0,1,.17.53,134.81,134.81,0,0,1-5.16,16.49,97.73,97.73,0,0,1-6.55,13.8,60.82,60.82,0,0,1-8.57,11.56C99.32,146.42,97,147.87,95,147.87Zm-.62-37.54a.39.39,0,0,1,.15,0,.53.53,0,0,1,.38.62c-1.29,6.77-2.23,12.36-2.78,16.63a88.8,88.8,0,0,0-.83,11,15.33,15.33,0,0,0,1,6.32c1.18,2.44,3.45,2.63,6.88-.12a5.88,5.88,0,0,1-3.34,1.44,2.66,2.66,0,0,1-2.46-1.85,11.39,11.39,0,0,1-.75-4.61,119.33,119.33,0,0,1,1.48-15.1c1-6.63,2.29-14.19,4-22.46H97c-1,2.86-2,5.63-3,8.28A.55.55,0,0,1,94.38,110.33Zm-18.17-7.77a1.34,1.34,0,0,1,.26.38,4.74,4.74,0,0,1,.3,2,61,61,0,0,1-.59,6.81c-.39,3-1.05,7.46-2,13.5s-1.63,10.28-2,12.79a51.59,51.59,0,0,0-.46,5.65A5.1,5.1,0,0,0,72.2,146c.36.68.72.68.84.68.88,0,3-1.15,7.68-8.45-.39.59-.78,1.16-1.17,1.72-3.66,5.21-4.59,5.65-5.18,5.65a1.16,1.16,0,0,1-1.05-.75,3.2,3.2,0,0,1-.3-1.5,81,81,0,0,1,1.19-8.76l1.42-9c1.38-9.13,2.07-15.06,2.07-17.61a10.8,10.8,0,0,0-.68-4.35A2.23,2.23,0,0,0,76.21,102.56Zm43.3.43a112.89,112.89,0,0,1-4.23,15.6,80.84,80.84,0,0,1-6.06,13.4,59.1,59.1,0,0,1-6,8.84,66.7,66.7,0,0,0,6.71-9.51,96.72,96.72,0,0,0,6.47-13.65,133.74,133.74,0,0,0,4.87-15.34Zm-53.9,10.39,1,1a86,86,0,0,1,5-9.18,14.46,14.46,0,0,1,1.32-1.71,12.39,12.39,0,0,0-1.41,1.35A56.72,56.72,0,0,0,65.61,113.38Z"/><path class="cls-1" d="M121.33,142.12l.13.84a21.13,21.13,0,0,1-4.17,3.36,7,7,0,0,1-3.52,1.13A3.18,3.18,0,0,1,110.3,144a8.23,8.23,0,0,1,.81-3.28,14.79,14.79,0,0,1,2.23-3.53,15.21,15.21,0,0,1,3.24-3,5.56,5.56,0,0,1,3-1,2.09,2.09,0,0,1,1.64.75,2.63,2.63,0,0,1,.65,1.79q0,2.17-2.46,4.46a20.43,20.43,0,0,1-6.55,3.88v.24a1.91,1.91,0,0,0,.54,1.43,2,2,0,0,0,1.47.52,5.6,5.6,0,0,0,2.77-1.06A22.75,22.75,0,0,0,121.33,142.12Zm-8.48,1.09a16.71,16.71,0,0,0,5.37-3.6,6,6,0,0,0,2-4,1.82,1.82,0,0,0-.33-1.18,1.12,1.12,0,0,0-.94-.4c-1.08,0-2.2.86-3.38,2.57A20,20,0,0,0,112.85,143.21Z"/><path class="cls-1" d="M113.77,148a3.7,3.7,0,0,1-4-4,9,9,0,0,1,.85-3.5,15.68,15.68,0,0,1,2.32-3.66,16,16,0,0,1,3.35-3.06c2.07-1.35,4.12-1.59,5.34-.2a3.16,3.16,0,0,1,.78,2.15c0,1.6-.89,3.23-2.63,4.86a20.6,20.6,0,0,1-6.38,3.84,1.31,1.31,0,0,0,.37.92c.6.57,1.76.55,3.58-.61a22.62,22.62,0,0,0,3.61-3,.6.6,0,0,1,.56-.13.55.55,0,0,1,.36.44l.12.83a.52.52,0,0,1-.15.46,21.69,21.69,0,0,1-4.28,3.45A7.64,7.64,0,0,1,113.77,148Zm2.06-12.55a17,17,0,0,0-2.08,2.08,14.37,14.37,0,0,0-2.14,3.4,7.65,7.65,0,0,0-.76,3.06,2.92,2.92,0,0,0,.75,2.18,3.33,3.33,0,0,0,3.21.63,2.55,2.55,0,0,1-1.8-.68,2.44,2.44,0,0,1-.71-1.82v-.24a.55.55,0,0,1,.2-.42h0a.53.53,0,0,1-.18-.54,20.46,20.46,0,0,1,2.84-6.74C115.38,136,115.61,135.71,115.83,135.44Zm3.15-.83c-.88,0-1.87.79-2.93,2.34a18.46,18.46,0,0,0-2.38,5.26,15.24,15.24,0,0,0,4.16-3,5.49,5.49,0,0,0,1.88-3.59,1.35,1.35,0,0,0-.21-.84A.59.59,0,0,0,119,134.61Zm.89-.87a1.46,1.46,0,0,1,.47.39,2.35,2.35,0,0,1,.45,1.52,6.48,6.48,0,0,1-2.18,4.34,14,14,0,0,1-1,1,16.2,16.2,0,0,0,1.47-1.19c1.52-1.42,2.29-2.79,2.29-4.07a2.09,2.09,0,0,0-.52-1.44A1.53,1.53,0,0,0,119.87,133.74Z"/><path class="cls-1" d="M122.48,145.69l2.35-1.58a43.47,43.47,0,0,0,5.8,1.95,20.48,20.48,0,0,0,4.86.65A20.84,20.84,0,0,0,148,142.12q6.16-4.58,13-14.46l4.19-6q13.85-20,15.67-20a1.39,1.39,0,0,1,1.27.74,4.38,4.38,0,0,1,.43,2.17,29.39,29.39,0,0,1-1.13,7q-1.12,4.4-4.07,12.83l-3.16,9.13h.62q.58,0,1.92-.12H177l-.07,1c-.37.06-.74.11-1.13.14s-.77,0-1.16,0h-.8l-4.22,12.57-2.44.13a64.78,64.78,0,0,0-4.5-8.86,21.06,21.06,0,0,0-4.21-5,40.89,40.89,0,0,1-11.52,10.93,25.13,25.13,0,0,1-13,3.53,28.81,28.81,0,0,1-5.36-.54A45.23,45.23,0,0,1,122.48,145.69Zm36.68-13.14a27.05,27.05,0,0,0,4.35.85,42.11,42.11,0,0,0,5.15.3c.27,0,.82,0,1.65-.1l.71,0,7-20.88q1-2.82,1.46-4.67a11.63,11.63,0,0,0,.49-2.64,1.76,1.76,0,0,0-.09-.65.3.3,0,0,0-.28-.22q-1.14,0-8.24,10.47T159.16,132.55Zm11.58,2.11h-1.52c-1.77,0-3.34,0-4.71-.16a30.87,30.87,0,0,1-3.77-.49,42,42,0,0,1,3.39,4.88,66.11,66.11,0,0,1,3.26,6.21Z"/><path class="cls-1" d="M133.88,148.4a30.06,30.06,0,0,1-5.46-.55,47.27,47.27,0,0,1-6.12-1.65.56.56,0,0,1-.36-.44.55.55,0,0,1,.24-.52l2.35-1.58a.52.52,0,0,1,.51,0,40.88,40.88,0,0,0,5.72,1.92,19.5,19.5,0,0,0,4.73.64,20.43,20.43,0,0,0,12.22-4.48c4-3,8.38-7.83,12.89-14.34l4.18-6c14-20.21,15.43-20.21,16.12-20.21a1.94,1.94,0,0,1,1.74,1,4.83,4.83,0,0,1,.5,2.44,30.39,30.39,0,0,1-1.14,7.1c-.76,2.95-2.14,7.28-4.09,12.87L175,133c.39,0,1-.05,1.73-.12H177a.52.52,0,0,1,.39.17.54.54,0,0,1,.15.4l-.07,1a.52.52,0,0,1-.45.5,11,11,0,0,1-1.17.15c-.4,0-.8.05-1.21.05h-.41l-4.09,12.2a.55.55,0,0,1-.49.37l-2.45.13a.55.55,0,0,1-.52-.33,66.73,66.73,0,0,0-4.45-8.78,21.49,21.49,0,0,0-3.67-4.52,41.19,41.19,0,0,1-11.33,10.61A25.91,25.91,0,0,1,133.88,148.4Zm-10.18-2.88a44,44,0,0,0,4.92,1.26,27.69,27.69,0,0,0,7.12.47,19.77,19.77,0,0,1-5.24-.67,40.2,40.2,0,0,1-5.6-1.86Zm42.34-2c.48,1,1,2.05,1.45,3.18l1.71-.09,4.09-12.22a.56.56,0,0,1,.52-.37h.25a.63.63,0,0,1-.26-.2.54.54,0,0,1-.07-.49l3.16-9.14c1.94-5.57,3.31-9.87,4.06-12.78a29.41,29.41,0,0,0,1.11-6.84,3.85,3.85,0,0,0-.36-1.89.85.85,0,0,0-.8-.48c-.24.05-.93.54-2.77,2.76.94-1,1.26-1,1.5-1a.84.84,0,0,1,.78.55,2.15,2.15,0,0,1,.13.86,12.39,12.39,0,0,1-.51,2.79c-.34,1.24-.83,2.82-1.47,4.69l-7,20.88c-.09.28-.34.36-.74.37a.57.57,0,0,1,.39.22.55.55,0,0,1,.08.48l-3.35,10.44a.55.55,0,0,1-.48.38.57.57,0,0,1-.53-.31C166.62,144.71,166.33,144.12,166,143.53Zm7.84-33.1c-2.07,2.8-4.75,6.54-8.21,11.53l-4.18,6c-4.58,6.6-9,11.51-13.13,14.59a27.13,27.13,0,0,1-4.27,2.62,27,27,0,0,0,2.56-1.32A40.55,40.55,0,0,0,158,133.06a.58.58,0,0,1,.37-.21.56.56,0,0,1,.41.12,17.33,17.33,0,0,1,2.1,2.1l-.57-.72a.53.53,0,0,1,0-.62.55.55,0,0,1,.36-.25c-.57-.12-1.11-.26-1.62-.41a.57.57,0,0,1-.37-.34.56.56,0,0,1,.08-.5c3.41-4.71,7.52-10.62,12.22-17.54C172.07,113,173,111.62,173.88,110.43ZM162,134.78c.85,1.14,1.71,2.42,2.56,3.83s1.83,3.21,2.71,5l2.7-8.43h-.78c-1.79,0-3.39,0-4.75-.16C163.62,135,162.8,134.89,162,134.78Zm-2-2.55a29.62,29.62,0,0,0,3.52.64,43.22,43.22,0,0,0,5.09.29c.27,0,.8,0,1.61-.09l.36,0,6.91-20.52c.63-1.84,1.12-3.4,1.44-4.63a11.11,11.11,0,0,0,.48-2.5,1.41,1.41,0,0,0,0-.22c-.57.44-2.36,2.37-7.61,10.12C167.34,121.92,163.38,127.62,160.05,132.23Z"/><path class="cls-1" d="M179.29,147.14H177.4l2.66-12.82,2.42-.74L180.62,143a49.53,49.53,0,0,1,4-7c1.17-1.61,2.13-2.41,2.9-2.41a1.18,1.18,0,0,1,1,.55,2.69,2.69,0,0,1,.38,1.52,22.12,22.12,0,0,1-.31,2.48l0,.12-2.2,1.58c.13-1,.22-1.71.28-2.27s.09-.95.09-1.14a1.47,1.47,0,0,0-.12-.66.35.35,0,0,0-.31-.23c-.43,0-1.26,1-2.48,3S181.09,143.45,179.29,147.14Z"/><path class="cls-1" d="M179.29,147.68H177.4a.55.55,0,0,1-.42-.19.58.58,0,0,1-.11-.46l2.66-12.82a.55.55,0,0,1,.37-.41l2.42-.74a.54.54,0,0,1,.69.62l-1.11,5.67a37.51,37.51,0,0,1,2.26-3.68c1.31-1.8,2.37-2.64,3.34-2.64a1.73,1.73,0,0,1,1.45.79,3.19,3.19,0,0,1,.48,1.83,21.74,21.74,0,0,1-.31,2.56s0,.16-.05.18a.52.52,0,0,1-.2.3l-2.2,1.58a.53.53,0,0,1-.85-.51c.12-.94.21-1.7.27-2.26s.09-.9.09-1.08a1.7,1.7,0,0,0,0-.25,13.09,13.09,0,0,0-1.89,2.67c-1.21,2-2.73,4.88-4.5,8.54A.53.53,0,0,1,179.29,147.68Zm-1.23-1.08H179q.8-1.64,1.53-3.06h0a.55.55,0,0,1-.36-.62l1.68-8.56-1.24.38ZM186.29,135a.89.89,0,0,1,.79.52,2,2,0,0,1,.18.91c0,.2,0,.6-.09,1.19,0,.3-.07.65-.12,1.06l1-.73a19.68,19.68,0,0,0,.3-2.29,2.14,2.14,0,0,0-.29-1.21.63.63,0,0,0-.56-.32c-.23,0-.67.14-1.39.88Z"/><path class="cls-1" d="M201.13,142.12l.12.84a21.13,21.13,0,0,1-4.17,3.36,7,7,0,0,1-3.51,1.13,3.45,3.45,0,0,1-2.56-.91,3.49,3.49,0,0,1-.91-2.56,8.23,8.23,0,0,1,.81-3.28,14.48,14.48,0,0,1,2.23-3.53,15.43,15.43,0,0,1,3.23-3,5.59,5.59,0,0,1,3-1,2.07,2.07,0,0,1,1.64.75,2.58,2.58,0,0,1,.65,1.79q0,2.17-2.46,4.46a20.21,20.21,0,0,1-6.55,3.88v.24a1.91,1.91,0,0,0,.54,1.43,2,2,0,0,0,1.47.52,5.63,5.63,0,0,0,2.78-1.06A23.63,23.63,0,0,0,201.13,142.12Zm-8.49,1.09a16.71,16.71,0,0,0,5.37-3.6,5.93,5.93,0,0,0,2-4,1.89,1.89,0,0,0-.32-1.18,1.14,1.14,0,0,0-.95-.4c-1.07,0-2.19.86-3.37,2.57A20,20,0,0,0,192.64,143.21Z"/><path class="cls-1" d="M193.57,148a3.7,3.7,0,0,1-4-4,9,9,0,0,1,.85-3.5,15.63,15.63,0,0,1,2.31-3.66,16,16,0,0,1,3.36-3.06c2.07-1.35,4.11-1.59,5.33-.2a3.17,3.17,0,0,1,.79,2.15c0,1.6-.89,3.23-2.64,4.86a20.54,20.54,0,0,1-6.37,3.84,1.31,1.31,0,0,0,.37.92c.59.57,1.75.55,3.58-.61a23.07,23.07,0,0,0,3.61-3,.58.58,0,0,1,.55-.13.55.55,0,0,1,.36.44l.13.83a.56.56,0,0,1-.16.46,22,22,0,0,1-4.27,3.45A7.67,7.67,0,0,1,193.57,148Zm2.05-12.55a17,17,0,0,0-2.07,2.08,14.11,14.11,0,0,0-2.15,3.4,7.82,7.82,0,0,0-.76,3.06,2.92,2.92,0,0,0,.76,2.18,3.31,3.31,0,0,0,3.2.63,2.53,2.53,0,0,1-1.79-.68,2.44,2.44,0,0,1-.71-1.82v-.24a.52.52,0,0,1,.2-.42h0a.52.52,0,0,1-.17-.54,20.46,20.46,0,0,1,2.83-6.74C195.18,136,195.4,135.71,195.62,135.44Zm3.15-.83c-.88,0-1.86.79-2.93,2.34a18.45,18.45,0,0,0-2.37,5.26,15.18,15.18,0,0,0,4.15-3,5.49,5.49,0,0,0,1.88-3.59,1.42,1.42,0,0,0-.2-.84A.63.63,0,0,0,198.77,134.61Zm.89-.87a1.51,1.51,0,0,1,.48.39,2.35,2.35,0,0,1,.44,1.52A6.48,6.48,0,0,1,198.4,140a11,11,0,0,1-1.05,1,13.83,13.83,0,0,0,1.47-1.19c1.52-1.42,2.29-2.79,2.29-4.07a2.13,2.13,0,0,0-.51-1.44A1.52,1.52,0,0,0,199.66,133.74Z"/><path class="cls-1" d="M220.15,161.27l-.56-2.45a42.15,42.15,0,0,0,4.94,1.42,17.56,17.56,0,0,0,3.76.47,9.93,9.93,0,0,0,8-3.64q3.06-3.65,5.14-12a30.26,30.26,0,0,1-5,1.76,19.14,19.14,0,0,1-4.55.59,11.68,11.68,0,0,1-12.49-12.48,24.48,24.48,0,0,1,2.4-10.19,40.18,40.18,0,0,1,6.93-10.26,43,43,0,0,1,11.77-9.32,25.62,25.62,0,0,1,11.95-3.47,6.15,6.15,0,0,1,4.06,1.22,4.21,4.21,0,0,1,1.46,3.39q0,2.73-2.84,6a41.79,41.79,0,0,1-8.41,6.88l-2.13-1.52a52.8,52.8,0,0,0,8.79-6.78c2.05-2.07,3.07-3.8,3.07-5.21a2.51,2.51,0,0,0-1.3-2.13,5.78,5.78,0,0,0-3.28-.87,17.74,17.74,0,0,0-7.53,2.2,38.33,38.33,0,0,0-8.52,5.79,45.54,45.54,0,0,0-9.93,12.33,26.9,26.9,0,0,0-3.58,12.67,10.9,10.9,0,0,0,2.88,7.82,9.81,9.81,0,0,0,7.41,3,12.94,12.94,0,0,0,4.69-.94,21.63,21.63,0,0,0,4.94-2.84,17.41,17.41,0,0,1,2.29-6.91q1.71-2.69,3.53-2.69a.73.73,0,0,1,.55.25.77.77,0,0,1,.23.52,2.33,2.33,0,0,1-.57,1.07,7.1,7.1,0,0,0-.82,1.29q-.6,1.23-2.11,5.79c-1,3-1.83,5.44-2.45,7.22q-2.35,6.6-6.16,9.57t-10,3c-1,0-2,0-3.05-.11S221.39,161.43,220.15,161.27Z"/><path class="cls-1" d="M226.68,162.27c-1,0-2,0-3.08-.11s-2.26-.19-3.52-.36a.53.53,0,0,1-.46-.41l-.56-2.45a.55.55,0,0,1,.71-.63,44.13,44.13,0,0,0,4.87,1.41,17.7,17.7,0,0,0,3.65.45,9.32,9.32,0,0,0,7.55-3.45c1.85-2.19,3.45-5.81,4.76-10.75a29.65,29.65,0,0,1-4.09,1.36,19.7,19.7,0,0,1-4.68.6,12.19,12.19,0,0,1-13-13,25.11,25.11,0,0,1,2.45-10.42,40.77,40.77,0,0,1,7-10.39,43.87,43.87,0,0,1,11.91-9.44,26.42,26.42,0,0,1,12.21-3.53,6.64,6.64,0,0,1,4.41,1.35,4.74,4.74,0,0,1,1.65,3.8c0,2-1,4.07-3,6.31a42.55,42.55,0,0,1-8.52,7,.54.54,0,0,1-.61,0L244.21,118a.56.56,0,0,1-.23-.45.54.54,0,0,1,.25-.44,52.7,52.7,0,0,0,8.71-6.71c1.93-2,2.91-3.58,2.91-4.83a2,2,0,0,0-1.06-1.68c-2-1.36-5.6-.94-10.27,1.36a38.12,38.12,0,0,0-8.4,5.72,44.93,44.93,0,0,0-9.81,12.18,26.48,26.48,0,0,0-3.52,12.41,10.35,10.35,0,0,0,2.74,7.44,9.14,9.14,0,0,0,7,2.86A12.32,12.32,0,0,0,237,145a20.64,20.64,0,0,0,4.64-2.63,17.7,17.7,0,0,1,2.34-6.89c1.23-2,2.57-3,4-3a1.23,1.23,0,0,1,.94.42,1.25,1.25,0,0,1,.38.89,2.57,2.57,0,0,1-.68,1.4,6.81,6.81,0,0,0-.77,1.19c-.38.81-1.08,2.73-2.08,5.73s-1.83,5.45-2.45,7.23c-1.6,4.48-3.73,7.78-6.34,9.81S230.9,162.27,226.68,162.27Zm-6.09-1.49c1.11.14,2.14.24,3.08.3,1.2.08,2.32.13,3.36.11a19.8,19.8,0,0,1-2.61-.42,42.19,42.19,0,0,1-4.09-1.13ZM241.4,144.5a.52.52,0,0,1,.34.12.55.55,0,0,1,.18.55c-1.39,5.65-3.16,9.77-5.25,12.25a10.65,10.65,0,0,1-2.77,2.37,11.54,11.54,0,0,0,2.42-1.46c2.45-1.91,4.47-5.05,6-9.32.62-1.77,1.44-4.18,2.45-7.21s1.72-5,2.13-5.85a7.69,7.69,0,0,1,.88-1.39,2.37,2.37,0,0,0,.46-.76.36.36,0,0,0-.09-.14.2.2,0,0,0-.15-.07c-1,0-2,.82-3.07,2.44a16.83,16.83,0,0,0-2.21,6.7.53.53,0,0,1-.21.35,22.66,22.66,0,0,1-4.71,2.76,31.52,31.52,0,0,0,3.39-1.3A.54.54,0,0,1,241.4,144.5Zm5.94-41.58a31,31,0,0,0-6.65,2.7,42.59,42.59,0,0,0-11.62,9.21,39.45,39.45,0,0,0-6.83,10.11,24.12,24.12,0,0,0-2.36,10,11.78,11.78,0,0,0,3.24,8.72,11.31,11.31,0,0,0,7.24,3.16,10,10,0,0,1-5.62-3,11.43,11.43,0,0,1-3-8.19,27.62,27.62,0,0,1,3.64-12.93,46.06,46.06,0,0,1,10.05-12.47,39.35,39.35,0,0,1,8.64-5.88A28,28,0,0,1,247.34,102.92Zm-1.85,14.69,1.18.84a41.15,41.15,0,0,0,8-6.57c1.79-2,2.7-3.92,2.7-5.6a3.64,3.64,0,0,0-1.27-3,4.68,4.68,0,0,0-2.15-1,5.28,5.28,0,0,1,1.44.67,3,3,0,0,1,1.54,2.58c0,1.57-1.05,3.4-3.22,5.59A51.49,51.49,0,0,1,245.49,117.61Z"/><path class="cls-1" d="M261.07,142.12l.12.84a21.11,21.11,0,0,1-4.16,3.36,7.07,7.07,0,0,1-3.52,1.13A3.16,3.16,0,0,1,250,144a8.23,8.23,0,0,1,.81-3.28,14.48,14.48,0,0,1,2.23-3.53,15.43,15.43,0,0,1,3.23-3,5.59,5.59,0,0,1,3-1,2.11,2.11,0,0,1,1.65.75,2.62,2.62,0,0,1,.64,1.79q0,2.17-2.46,4.46a20.21,20.21,0,0,1-6.55,3.88v.24a1.91,1.91,0,0,0,.54,1.43,2,2,0,0,0,1.47.52,5.63,5.63,0,0,0,2.78-1.06A23.18,23.18,0,0,0,261.07,142.12Zm-8.49,1.09a16.71,16.71,0,0,0,5.37-3.6,5.93,5.93,0,0,0,2-4,1.82,1.82,0,0,0-.32-1.18,1.14,1.14,0,0,0-1-.4c-1.07,0-2.2.86-3.37,2.57A20,20,0,0,0,252.58,143.21Z"/><path class="cls-1" d="M253.51,148a3.7,3.7,0,0,1-4-4,8.91,8.91,0,0,1,.85-3.5,15.63,15.63,0,0,1,2.31-3.66,16,16,0,0,1,3.36-3.06c2.06-1.34,4.1-1.6,5.33-.2a3.16,3.16,0,0,1,.78,2.15c0,1.6-.88,3.23-2.63,4.86a20.36,20.36,0,0,1-6.38,3.84,1.32,1.32,0,0,0,.38.92c.59.58,1.74.55,3.58-.61a23.07,23.07,0,0,0,3.61-3,.58.58,0,0,1,.55-.13.55.55,0,0,1,.36.43l.13.84a.53.53,0,0,1-.16.46,21.58,21.58,0,0,1-4.27,3.45A7.64,7.64,0,0,1,253.51,148Zm2.05-12.55a17.69,17.69,0,0,0-2.07,2.08,14.42,14.42,0,0,0-2.15,3.4,7.82,7.82,0,0,0-.76,3.06,2.88,2.88,0,0,0,.76,2.17,3.3,3.3,0,0,0,3.21.64,2.5,2.5,0,0,1-1.8-.69,2.4,2.4,0,0,1-.71-1.81v-.24a.52.52,0,0,1,.2-.42h0a.53.53,0,0,1-.18-.54,20.67,20.67,0,0,1,2.84-6.74C255.11,136,255.34,135.71,255.56,135.44Zm3.15-.83c-.88,0-1.86.79-2.93,2.34a18.45,18.45,0,0,0-2.37,5.26,15.18,15.18,0,0,0,4.15-3,5.49,5.49,0,0,0,1.88-3.59,1.37,1.37,0,0,0-.2-.83A.6.6,0,0,0,258.71,134.61Zm.89-.87a1.4,1.4,0,0,1,.48.4,2.36,2.36,0,0,1,.44,1.51,6.48,6.48,0,0,1-2.18,4.34,12.63,12.63,0,0,1-1.06,1,16.76,16.76,0,0,0,1.48-1.2c1.52-1.42,2.29-2.78,2.29-4.07a2.13,2.13,0,0,0-.51-1.44A1.52,1.52,0,0,0,259.6,133.74Z"/><path class="cls-1" d="M272.59,142.37l.53.65a29.72,29.72,0,0,1-4.09,3.35,5.13,5.13,0,0,1-2.63.9,2,2,0,0,1-2.3-2.3,9.22,9.22,0,0,1,.33-1.89c.22-.88.55-2,1-3.43l2.55-8.24h-1.86l.46-1.15h1.64l2.92-9.63,2.78-.78-3.09,10.41h4.42l-.37,1.15h-4.55L267.54,141c-.29,1-.5,1.77-.63,2.39a6.82,6.82,0,0,0-.2,1.42.8.8,0,0,0,.89.9,4,4,0,0,0,1.93-.85A26.68,26.68,0,0,0,272.59,142.37Z"/><path class="cls-1" d="M266.4,147.81a2.55,2.55,0,0,1-2.84-2.84,9.82,9.82,0,0,1,.34-2c.22-.9.57-2.07,1-3.48l2.32-7.53h-1.12a.54.54,0,0,1-.5-.75l.46-1.14a.53.53,0,0,1,.5-.34h1.24l2.8-9.25a.5.5,0,0,1,.37-.36l2.79-.78a.55.55,0,0,1,.53.14.54.54,0,0,1,.13.54l-2.89,9.71h3.7a.53.53,0,0,1,.44.22.57.57,0,0,1,.08.49l-.37,1.14a.54.54,0,0,1-.52.38h-4.14l-2.68,9.24c-.28,1-.5,1.76-.63,2.35a7.36,7.36,0,0,0-.18,1.31.42.42,0,0,0,.07.29.44.44,0,0,0,.28.07,3.4,3.4,0,0,0,1.62-.76,24.82,24.82,0,0,0,3-2.48.56.56,0,0,1,.41-.14.51.51,0,0,1,.38.2l.53.65a.55.55,0,0,1-.05.74,30.73,30.73,0,0,1-4.18,3.41A5.66,5.66,0,0,1,266.4,147.81Zm.52-16.94H268a.53.53,0,0,1,.43.22.54.54,0,0,1,.08.48L266,139.81c-.45,1.39-.78,2.53-1,3.4a9.6,9.6,0,0,0-.31,1.76,1.81,1.81,0,0,0,.42,1.34c.53.53,1.78.63,3.25-.15a1.63,1.63,0,0,1-1.76-.26,1.49,1.49,0,0,1-.39-1.05,7.54,7.54,0,0,1,.22-1.54c.13-.63.34-1.42.64-2.42l2.79-9.63a.53.53,0,0,1,.52-.39l4.18-.07h-3.68a.53.53,0,0,1-.44-.22.52.52,0,0,1-.08-.47l2.81-9.48-1.55.44-2.83,9.35a.55.55,0,0,1-.52.38Z"/><path class="cls-1" d="M283,142.37l.53.65a29.72,29.72,0,0,1-4.09,3.35,5.14,5.14,0,0,1-2.64.9,2,2,0,0,1-2.29-2.3,9.22,9.22,0,0,1,.33-1.89c.21-.88.55-2,1-3.43l2.54-8.24h-1.86l.47-1.15h1.64l2.91-9.63,2.79-.78-3.1,10.41h4.43l-.37,1.15h-4.55L278,141c-.29,1-.5,1.77-.63,2.39a7,7,0,0,0-.21,1.42.82.82,0,0,0,.9.9,4,4,0,0,0,1.92-.85A25.82,25.82,0,0,0,283,142.37Z"/><path class="cls-1" d="M276.8,147.81A2.55,2.55,0,0,1,274,145a9.58,9.58,0,0,1,.34-2c.22-.89.56-2.06,1-3.47l2.32-7.53h-1.13a.52.52,0,0,1-.44-.24.58.58,0,0,1-.06-.51l.47-1.14a.53.53,0,0,1,.5-.34h1.24l2.8-9.25a.5.5,0,0,1,.37-.36l2.79-.78a.55.55,0,0,1,.53.14.54.54,0,0,1,.13.54L282,129.72h3.7a.53.53,0,0,1,.44.22.57.57,0,0,1,.08.49l-.37,1.14a.55.55,0,0,1-.52.38h-4.15l-2.67,9.24c-.28.95-.49,1.74-.63,2.35a6.82,6.82,0,0,0-.18,1.31.42.42,0,0,0,.07.29.44.44,0,0,0,.28.07,3.52,3.52,0,0,0,1.62-.76,26.47,26.47,0,0,0,3-2.48.6.6,0,0,1,.41-.14.51.51,0,0,1,.38.2l.53.65a.54.54,0,0,1-.06.74,29.89,29.89,0,0,1-4.17,3.41A5.6,5.6,0,0,1,276.8,147.81Zm.53-16.94h1.05a.54.54,0,0,1,.52.7l-2.54,8.24c-.45,1.39-.79,2.53-1,3.4a9.08,9.08,0,0,0-.31,1.76,1.81,1.81,0,0,0,.42,1.34c.52.53,1.77.63,3.25-.15a1.63,1.63,0,0,1-1.76-.26,1.42,1.42,0,0,1-.39-1.05,7.28,7.28,0,0,1,.22-1.54c.14-.64.35-1.46.64-2.42l2.79-9.63a.53.53,0,0,1,.52-.39l4.18-.07h-3.69a.54.54,0,0,1-.51-.69l2.81-9.48-1.55.44-2.83,9.35a.55.55,0,0,1-.52.38Z"/><path class="cls-1" d="M288.42,133.82l2.91-.59c-1,2.94-1.81,5.41-2.38,7.41a18.83,18.83,0,0,0-.87,3.9.7.7,0,0,0,.28.53.91.91,0,0,0,.62.24,2.71,2.71,0,0,0,1.34-.82,31.76,31.76,0,0,0,2.59-2.61l.44.62a27.08,27.08,0,0,1-3.74,3.71,4.55,4.55,0,0,1-2.52,1.18,1.34,1.34,0,0,1-1.15-.56,2.63,2.63,0,0,1-.4-1.58,28.78,28.78,0,0,1,1.1-4.64C287.37,138,288,135.76,288.42,133.82Zm2.38-7.19a1.55,1.55,0,0,1,.44-1.12,1.48,1.48,0,0,1,1.11-.45,1.33,1.33,0,0,1,1,.4,1.45,1.45,0,0,1,.39,1.05,1.5,1.5,0,0,1-1.61,1.61,1.33,1.33,0,0,1-1-.35A1.65,1.65,0,0,1,290.8,126.63Z"/><path class="cls-1" d="M287.09,147.93a1.88,1.88,0,0,1-1.59-.78,3.22,3.22,0,0,1-.5-1.9,23.17,23.17,0,0,1,1.12-4.79c.73-2.59,1.33-4.87,1.77-6.76a.55.55,0,0,1,.42-.41l2.92-.59a.53.53,0,0,1,.51.18.51.51,0,0,1,.1.53c-1,2.91-1.8,5.39-2.37,7.38a17.74,17.74,0,0,0-.85,3.75s0,.05.1.12a.35.35,0,0,0,.26.11s.25,0,1-.69a32.66,32.66,0,0,0,2.54-2.57.55.55,0,0,1,.85.06l.43.62a.53.53,0,0,1,0,.66,27.16,27.16,0,0,1-3.81,3.79A5,5,0,0,1,287.09,147.93Zm1.78-13.64c-.44,1.84-1,4-1.71,6.46a26,26,0,0,0-1.08,4.5,2.13,2.13,0,0,0,.3,1.26.79.79,0,0,0,.71.34,3.91,3.91,0,0,0,2.14-1,1.27,1.27,0,0,1-1.23-.35,1.21,1.21,0,0,1-.46-.93,18.79,18.79,0,0,1,.89-4c.51-1.8,1.22-4,2.08-6.54Zm3.27-5.63a1.81,1.81,0,0,1-1.41-.53,2.16,2.16,0,0,1-.47-1.5,2.06,2.06,0,0,1,3.49-1.54,1.93,1.93,0,0,1,.54,1.42,2.13,2.13,0,0,1-.59,1.56A2.1,2.1,0,0,1,292.14,128.66Zm.21-3.06a1,1,0,0,0-.72.28,1,1,0,0,0-.28.75,1.2,1.2,0,0,0,.18.77.81.81,0,0,0,.61.18,1,1,0,0,0,1.07-1.07.9.9,0,0,0-.24-.67A.78.78,0,0,0,292.35,125.6Z"/><path class="cls-1" d="M296.72,147.27h-2.1c.84-2.6,1.56-5,2.15-7.05s1.08-4,1.47-5.84l2.91-1.27a55,55,0,0,1-1.67,5.82q-1,3.13-1.55,5a62,62,0,0,1,5.65-8.25c1.46-1.67,2.7-2.5,3.74-2.5a1.87,1.87,0,0,1,1.53.67,2.79,2.79,0,0,1,.54,1.81,14.06,14.06,0,0,1-1.36,4.88,14.48,14.48,0,0,0-1.36,4.38.87.87,0,0,0,.27.64.92.92,0,0,0,.62.26,3.4,3.4,0,0,0,1.69-1,20.18,20.18,0,0,0,2.5-2.63l.46.65a26.18,26.18,0,0,1-3.5,3.56,4,4,0,0,1-2.36,1,2,2,0,0,1-1.51-.55,2.08,2.08,0,0,1-.56-1.52,11.22,11.22,0,0,1,1-3.16c.27-.66.48-1.18.62-1.55.48-1.22.87-2.34,1.18-3.35a9.81,9.81,0,0,0,.46-1.85,1.15,1.15,0,0,0-.32-.81,1,1,0,0,0-.76-.34c-.66,0-1.9,1.19-3.7,3.58A84.62,84.62,0,0,0,296.72,147.27Z"/><path class="cls-1" d="M306.35,148a2.44,2.44,0,0,1-2.61-2.61,10,10,0,0,1,1-3.37l.62-1.54c.46-1.18.85-2.29,1.16-3.31a8.93,8.93,0,0,0,.44-1.69.58.58,0,0,0-.18-.44.47.47,0,0,0-.36-.17c-.08,0-.79.09-3.27,3.36a86.92,86.92,0,0,0-6,9.31.53.53,0,0,1-.47.28h-2.1a.53.53,0,0,1-.44-.22.57.57,0,0,1-.08-.49c.84-2.58,1.56-4.94,2.15-7s1.07-4,1.46-5.8a.56.56,0,0,1,.31-.39l2.92-1.27a.53.53,0,0,1,.54.07.55.55,0,0,1,.21.52,57,57,0,0,1-1.7,5.9l-.35,1.12a44,44,0,0,1,3.54-4.85c1.57-1.8,2.93-2.68,4.14-2.68a2.4,2.4,0,0,1,1.95.87,3.31,3.31,0,0,1,.66,2.15,14.5,14.5,0,0,1-1.4,5.09,13.48,13.48,0,0,0-1.32,4.17.32.32,0,0,0,.11.25.33.33,0,0,0,.24.11s.34,0,1.34-.86a20.45,20.45,0,0,0,2.43-2.56.66.66,0,0,1,.43-.2.52.52,0,0,1,.42.22l.47.65a.54.54,0,0,1,0,.67,26.79,26.79,0,0,1-3.58,3.64A4.57,4.57,0,0,1,306.35,148Zm.52-14.15a1.62,1.62,0,0,1,.7.45,1.68,1.68,0,0,1,.47,1.18,8.19,8.19,0,0,1-.48,2c-.32,1-.72,2.18-1.2,3.38-.14.38-.35.9-.62,1.56a10.28,10.28,0,0,0-.92,3,1.51,1.51,0,0,0,.4,1.13c.52.52,1.49.62,2.69-.15a1.32,1.32,0,0,1-1.34-.35,1.42,1.42,0,0,1-.45-1,14.51,14.51,0,0,1,1.41-4.59,13.87,13.87,0,0,0,1.32-4.67,2.28,2.28,0,0,0-.42-1.47,1.34,1.34,0,0,0-1.11-.46A2,2,0,0,0,306.87,133.84Zm-11.51,12.89h1.05c.44-.78.88-1.53,1.31-2.25h0a.54.54,0,0,1-.3-.65q.55-1.92,1.55-5.06c.68-2.13,1.16-3.72,1.43-4.74l-1.68.74c-.39,1.73-.86,3.62-1.42,5.6S296.11,144.41,295.36,146.73Z"/><path class="cls-1" d="M324.57,140.61a26.18,26.18,0,0,1-4.34,4.84,6,6,0,0,1-3.59,1.69,2.68,2.68,0,0,1-2.15-1,3.77,3.77,0,0,1-.83-2.54,7.79,7.79,0,0,1,1.11-3.64,13.73,13.73,0,0,1,2.89-3.64,12.3,12.3,0,0,1,3.66-2.38,10.55,10.55,0,0,1,4.09-.81,11.27,11.27,0,0,1,1.42.11q.81.1,1.8.3l-.5,1.33a13.19,13.19,0,0,0-1.79-.59,5.83,5.83,0,0,0-1.4-.19,7,7,0,0,0-3,.65,8.57,8.57,0,0,0-2.6,1.95,12.71,12.71,0,0,0-2.3,3.44,8.41,8.41,0,0,0-.86,3.41,2.46,2.46,0,0,0,.37,1.49,1.34,1.34,0,0,0,1.14.49c1.1,0,2.41-.83,3.92-2.51A36.89,36.89,0,0,0,326.4,136l1.67.56-2.35,8.7a19.14,19.14,0,0,0,1.88-1.47,17.29,17.29,0,0,0,1.61-1.59l.5.71c-.86.76-1.66,1.43-2.39,2s-1.38,1.09-2,1.52q-1.95,7.62-4.49,11.49t-5.6,3.87a2,2,0,0,1-1.55-.63,2.57,2.57,0,0,1-.56-1.78q0-2.2,2.57-5.38a43.88,43.88,0,0,1,7.28-6.8Zm-1.89,7.74a34,34,0,0,0-6.1,6.24q-2.41,3.27-2.42,4.79a1.6,1.6,0,0,0,.42,1.13,1.29,1.29,0,0,0,1,.45q1.65,0,3.3-2.91A55.66,55.66,0,0,0,322.68,148.35Z"/><path class="cls-1" d="M315.25,162.34a2.51,2.51,0,0,1-2-.82,3.16,3.16,0,0,1-.69-2.14c0-1.61.88-3.48,2.69-5.72a44.35,44.35,0,0,1,7.22-6.77l.95-4a22.46,22.46,0,0,1-2.88,2.94c-2.8,2.31-5.12,2.28-6.5.67a4.3,4.3,0,0,1-1-2.9,8.43,8.43,0,0,1,1.17-3.9,14.1,14.1,0,0,1,3-3.78,12.87,12.87,0,0,1,3.81-2.48,11.07,11.07,0,0,1,4.3-.85,10.59,10.59,0,0,1,1.49.12c.55.07,1.16.17,1.83.29a.56.56,0,0,1,.37.27.51.51,0,0,1,0,.45l-.49,1.34a.57.57,0,0,1-.29.3.55.55,0,0,1-.42,0,12.71,12.71,0,0,0-1.72-.57,5.71,5.71,0,0,0-1.27-.17,6.6,6.6,0,0,0-2.75.6,8.14,8.14,0,0,0-2.43,1.83,11.79,11.79,0,0,0-2.19,3.3,7.83,7.83,0,0,0-.82,3.18,2,2,0,0,0,.26,1.16.78.78,0,0,0,.71.28c.92,0,2.14-.8,3.52-2.33a36.5,36.5,0,0,0,4.68-7,.55.55,0,0,1,.65-.25l1.67.56a.54.54,0,0,1,.35.65l-1.94,7.19.6-.51a16.21,16.21,0,0,0,1.56-1.54.57.57,0,0,1,.44-.19.55.55,0,0,1,.41.24l.5.71a.54.54,0,0,1-.09.71c-.87.78-1.68,1.45-2.41,2s-1.28,1-1.84,1.41a39.77,39.77,0,0,1-4.51,11.47C319.51,161,317.47,162.34,315.25,162.34Zm-1.36-1.87a1.33,1.33,0,0,0,.21.33,1.85,1.85,0,0,0,.14.14s0,0-.06-.06A2.34,2.34,0,0,1,313.89,160.47ZM323,147.9h0a.53.53,0,0,1,.21.61,55.56,55.56,0,0,1-3.87,9.8,9.48,9.48,0,0,1-1.56,2.14,9.66,9.66,0,0,0,2.64-2.82c1.65-2.52,3.14-6.33,4.42-11.33A.51.51,0,0,1,325,146l.39-.29h0a.57.57,0,0,1-.22-.59l2.22-8.21-.76-.25c-.69,1.25-1.38,2.39-2,3.42a.43.43,0,0,1,.19,0,.54.54,0,0,1,.3.62l-1.57,6.6a.52.52,0,0,1-.2.3Zm-1.41,2.1a32.85,32.85,0,0,0-4.56,4.91c-1.91,2.59-2.31,3.86-2.31,4.47a1.05,1.05,0,0,0,.28.76.75.75,0,0,0,.57.28c.87,0,1.85-.92,2.83-2.64A48.22,48.22,0,0,0,321.57,150Zm-6,5a11.34,11.34,0,0,0-1.59,2.75A15.53,15.53,0,0,1,315.6,155Zm5.22-20.22a12,12,0,0,0-2.79,2,13.09,13.09,0,0,0-2.79,3.5,7.3,7.3,0,0,0-1,3.38,3.2,3.2,0,0,0,.69,2.19c.78.92,2,1.1,3.65.16a3.06,3.06,0,0,1-.83.11,1.86,1.86,0,0,1-1.58-.71,3,3,0,0,1-.48-1.81,9,9,0,0,1,.92-3.63,13.32,13.32,0,0,1,2.39-3.59A9.89,9.89,0,0,1,320.82,134.8Zm5.56-1,.08,0a12.64,12.64,0,0,1,1.35.42l.08-.22c-.4-.07-.78-.13-1.13-.17Z"/><path class="cls-1" d="M352.76,147.14h-2.67q6-17.25,9-27.47T362,106a5.31,5.31,0,0,0-.39-2.34,1.22,1.22,0,0,0-1.16-.76q-1.89,0-4.26,4.35a56.33,56.33,0,0,0-4.41,11.82l-2-2.17A36.81,36.81,0,0,1,355,106q3-4.09,5.76-4.1a2.25,2.25,0,0,1,2.06,1.41,9.05,9.05,0,0,1,.73,4,48.57,48.57,0,0,1-1.89,11.71q-1.89,7.22-7.37,22.8,10.1-21.1,15.52-29.35t8.89-8.26a2.37,2.37,0,0,1,2,.88,4,4,0,0,1,.7,2.53,21.24,21.24,0,0,1-1.21,5.82q-1.2,3.84-4.06,10.75l-.34.87q-6.63,16.23-6.63,17.53a.69.69,0,0,0,.14.43.44.44,0,0,0,.36.19q.67,0,3.75-6.6,3.38-7.28,6-12.42,5.21-10.16,8.42-14.31t5.7-4.15a2.78,2.78,0,0,1,2.37,1,5.13,5.13,0,0,1,.76,3.13q0,3.32-3.93,14.31-2,5.64-3.13,8.89-2.32,7.06-3.78,12a72.72,72.72,0,0,0-1.86,7.25L382,150.12q.87-4.27,2.76-10.44t4.7-14l3.32-9q1-2.91,1.55-4.91a13.13,13.13,0,0,0,.53-3,1.85,1.85,0,0,0-.52-1.37,1.73,1.73,0,0,0-1.31-.52q-2.11,0-5.82,5.55a164.74,164.74,0,0,0-9.61,17.58c-.85,1.76-2,4.11-3.34,7.07q-4.62,9.95-6.35,9.94a.93.93,0,0,1-.84-.64,4,4,0,0,1-.31-1.77,24.71,24.71,0,0,1,1.18-5.69c.78-2.74,1.83-5.75,3.12-9,.65-1.57,1.51-3.74,2.61-6.5q5.85-14.51,5.85-16.27a1.88,1.88,0,0,0-.4-1.27,1.39,1.39,0,0,0-1.11-.46q-2.82,0-8.82,9.88T352.76,147.14Z"/><path class="cls-1" d="M384,152.89a.53.53,0,0,1-.4-.19l-2-2.23a.54.54,0,0,1-.12-.46c.58-2.87,1.51-6.4,2.77-10.49s2.84-8.8,4.72-14l3.31-9c.66-1.89,1.18-3.52,1.54-4.87a13,13,0,0,0,.5-2.81,1.31,1.31,0,0,0-.36-1,1.17,1.17,0,0,0-.92-.36c-.68,0-2.28.69-5.37,5.32a162.45,162.45,0,0,0-9.57,17.51c-.85,1.75-2,4.11-3.34,7.06-4.2,9-5.81,10.25-6.84,10.25a1.44,1.44,0,0,1-1.33-.94,4.66,4.66,0,0,1-.36-2,25.23,25.23,0,0,1,1.19-5.84c.79-2.73,1.85-5.79,3.15-9.08q1-2.35,2.6-6.5C378,111.34,379,107.94,379,107.18a1.35,1.35,0,0,0-.27-.91.83.83,0,0,0-.7-.28c-.94,0-3.28,1.25-8.36,9.62-4,6.54-9.48,17.23-16.4,31.77a.55.55,0,0,1-.49.3h-2.67a.56.56,0,0,1-.44-.22.57.57,0,0,1-.07-.49c4-11.45,7-20.69,8.95-27.46s3-11.26,3-13.47a4.71,4.71,0,0,0-.33-2.09.71.71,0,0,0-.68-.47c-.72,0-2,.71-3.78,4.07a56.72,56.72,0,0,0-4.37,11.7.53.53,0,0,1-.92.22l-2-2.16a.55.55,0,0,1-.12-.53,37.77,37.77,0,0,1,5.25-11.08c2.16-2.91,4.18-4.32,6.2-4.32a2.76,2.76,0,0,1,2.54,1.7,9.49,9.49,0,0,1,.79,4.29,49.15,49.15,0,0,1-1.91,11.84c-.88,3.38-2.38,8.19-4.45,14.35a222,222,0,0,1,11.62-21.33c3.76-5.72,6.81-8.5,9.35-8.5a2.9,2.9,0,0,1,2.39,1.09,4.53,4.53,0,0,1,.81,2.86,21.54,21.54,0,0,1-1.23,6c-.81,2.56-2.18,6.19-4.08,10.8l-.33.86c-5.39,13.19-6.47,16.5-6.59,17.22a37.28,37.28,0,0,0,3.21-6.1c2.22-4.79,4.26-9,6.05-12.44,3.46-6.77,6.32-11.61,8.48-14.39,2.27-2.94,4.28-4.36,6.12-4.36a3.31,3.31,0,0,1,2.8,1.2,5.6,5.6,0,0,1,.87,3.46c0,2.29-1.29,7-4,14.49q-2,5.64-3.13,8.89c-1.52,4.61-2.79,8.64-3.77,12a71.14,71.14,0,0,0-1.84,7.19.55.55,0,0,1-.39.43ZM382.59,150l1,1.2c.34-1.53.89-3.61,1.66-6.22,1-3.33,2.26-7.37,3.79-12q1.11-3.27,3.13-8.9c2.59-7.24,3.9-12,3.9-14.13a4.77,4.77,0,0,0-.64-2.8,2.31,2.31,0,0,0-2-.78,2.28,2.28,0,0,0-.57.07,2.18,2.18,0,0,1,1.78.68,2.43,2.43,0,0,1,.67,1.75,13.28,13.28,0,0,1-.55,3.09c-.36,1.37-.89,3-1.56,5l-3.32,9c-1.86,5.18-3.45,9.87-4.7,14C384.07,143.77,383.16,147.18,382.59,150Zm-31.74-3.36h1.57q1-2.16,2-4.21a.5.5,0,0,1-.36,0,.55.55,0,0,1-.31-.68c3.64-10.33,6.11-18,7.37-22.76A48.42,48.42,0,0,0,363,107.37a8.57,8.57,0,0,0-.67-3.79,1.81,1.81,0,0,0-1.3-1.1,1.79,1.79,0,0,1,1.08,1,5.67,5.67,0,0,1,.45,2.59c0,2.34-1,6.85-3,13.78C357.63,126.46,354.7,135.47,350.85,146.6ZM378,104.91a1.94,1.94,0,0,1,1.52.65,2.43,2.43,0,0,1,.53,1.62c0,.81-.61,3.39-5.89,16.47-1.1,2.76-2,4.93-2.6,6.51-1.29,3.25-2.34,6.27-3.11,9a24.69,24.69,0,0,0-1.16,5.54,3.65,3.65,0,0,0,.26,1.54c.16.33.3.33.35.33s.91-.23,2.86-3.68c-.65.95-.91.95-1.16.95a1,1,0,0,1-.79-.4,1.26,1.26,0,0,1-.25-.76c0-.65.76-3.26,6.67-17.74l.34-.86c1.89-4.58,3.25-8.18,4.05-10.71a21.16,21.16,0,0,0,1.18-5.66,3.53,3.53,0,0,0-.58-2.19,1.92,1.92,0,0,0-2.23-.58Zm-8.56,37.86Zm-19-26,1.11,1.22a55.46,55.46,0,0,1,4.2-11,12.66,12.66,0,0,1,2.94-3.92,12.29,12.29,0,0,0-3.26,3.23A36.24,36.24,0,0,0,350.43,116.81Z"/><path class="cls-1" d="M409.79,142.25l.12.83a17.53,17.53,0,0,1-3.27,3A5.18,5.18,0,0,1,404,147.2a1.8,1.8,0,0,1-1.38-.51,2,2,0,0,1-.48-1.44,10.13,10.13,0,0,1,.34-2.29,36.31,36.31,0,0,1,1.18-3.62,32.75,32.75,0,0,1-4.74,5.77c-1.51,1.4-2.73,2.09-3.68,2.09a2.77,2.77,0,0,1-2.16-.91,3.45,3.45,0,0,1-.82-2.37,7.29,7.29,0,0,1,.92-3.13,18.89,18.89,0,0,1,2.55-3.75,13.84,13.84,0,0,1,3.43-2.94,6.92,6.92,0,0,1,3.51-1,14.47,14.47,0,0,1,2.11.25.33.33,0,0,1,.15,0l-.62,1.27a8.71,8.71,0,0,0-1.36-.51,4,4,0,0,0-1-.14,4.08,4.08,0,0,0-1.89.48,6.39,6.39,0,0,0-1.74,1.35,17.65,17.65,0,0,0-2.61,4,8.8,8.8,0,0,0-1,3.61,2.22,2.22,0,0,0,.39,1.45,1.54,1.54,0,0,0,1.25.47c1.18,0,2.62-1,4.31-3.13a48.48,48.48,0,0,0,5.33-8.74l2-.12-3.31,9.69a6.88,6.88,0,0,0-.19.75,2.85,2.85,0,0,0-.06.52,1.18,1.18,0,0,0,.25.76.71.71,0,0,0,.58.33,3.61,3.61,0,0,0,1.89-.84A17.41,17.41,0,0,0,409.79,142.25Z"/><path class="cls-1" d="M404,147.74a2.33,2.33,0,0,1-1.77-.67,2.57,2.57,0,0,1-.63-1.82,10.11,10.11,0,0,1,.36-2.42c0-.12.06-.23.09-.36a25.69,25.69,0,0,1-2.76,3c-1.63,1.51-2.95,2.23-4.05,2.23a3.27,3.27,0,0,1-2.56-1.09,3.94,3.94,0,0,1-1-2.73,7.77,7.77,0,0,1,1-3.37,19.61,19.61,0,0,1,2.63-3.86,14.58,14.58,0,0,1,3.57-3.06,7.54,7.54,0,0,1,3.78-1.06,15.23,15.23,0,0,1,2.19.25.78.78,0,0,1,.3.08.51.51,0,0,1,.28.31.57.57,0,0,1,0,.18l.06-.12a.58.58,0,0,1,.46-.3l2-.12a.57.57,0,0,1,.46.21.55.55,0,0,1,.08.51l-3.31,9.69c-.07.25-.13.48-.17.68a2.38,2.38,0,0,0-.05.41.67.67,0,0,0,.13.43c.09.12.14.12.16.12a3.1,3.1,0,0,0,1.58-.74,17.35,17.35,0,0,0,2.52-2.28.53.53,0,0,1,.56-.15.53.53,0,0,1,.37.44l.13.83a.58.58,0,0,1-.13.44,18.27,18.27,0,0,1-3.37,3.1A5.63,5.63,0,0,1,404,147.74Zm-.26-8.94.17,0a.56.56,0,0,1,.26.67,35.11,35.11,0,0,0-1.16,3.57,9.54,9.54,0,0,0-.32,2.16,1.52,1.52,0,0,0,.33,1.07c.47.5,1.48.53,3-.47a2.27,2.27,0,0,1-.74.13,1.25,1.25,0,0,1-1-.54,1.76,1.76,0,0,1-.35-1.09,3.25,3.25,0,0,1,.07-.63c0-.22.11-.48.2-.79l3.06-9-.93.06Q405,136.7,403.7,138.8ZM397.43,136a17.45,17.45,0,0,0-1.33,1.37,18.49,18.49,0,0,0-2.48,3.63,6.81,6.81,0,0,0-.86,2.89,2.87,2.87,0,0,0,.69,2,2.22,2.22,0,0,0,1.75.73,3.81,3.81,0,0,0,2.05-.89,2.34,2.34,0,0,1-2.58-.51,2.74,2.74,0,0,1-.51-1.8,9.29,9.29,0,0,1,1-3.84A17.82,17.82,0,0,1,397.43,136Zm4.49-1.48a3.51,3.51,0,0,0-1.64.42,5.87,5.87,0,0,0-1.59,1.23,16.94,16.94,0,0,0-2.52,3.88,8.23,8.23,0,0,0-.93,3.38,1.77,1.77,0,0,0,.26,1.1,1,1,0,0,0,.84.28c.69,0,1.92-.51,3.89-2.93a43.29,43.29,0,0,0,4.31-6.78.53.53,0,0,1-.49,0,9.54,9.54,0,0,0-1.28-.48A3.34,3.34,0,0,0,401.92,134.55Zm1.37-.85a5.83,5.83,0,0,1,.72.26l.08-.16C403.79,133.75,403.52,133.72,403.29,133.7Z"/><path class="cls-1" d="M413.13,147.14h-1.89l2.67-12.82,2.41-.74L414.46,143a48.46,48.46,0,0,1,4-7c1.16-1.61,2.13-2.41,2.89-2.41a1.18,1.18,0,0,1,1,.55,2.69,2.69,0,0,1,.38,1.52,23.74,23.74,0,0,1-.3,2.48l0,.12-2.19,1.58c.12-1,.21-1.71.27-2.27a11.2,11.2,0,0,0,.1-1.14,1.45,1.45,0,0,0-.13-.66.34.34,0,0,0-.31-.23c-.43,0-1.26,1-2.48,3S414.93,143.45,413.13,147.14Z"/><path class="cls-1" d="M413.13,147.68h-1.89a.55.55,0,0,1-.42-.19.58.58,0,0,1-.11-.46l2.67-12.82a.53.53,0,0,1,.37-.41l2.41-.74a.54.54,0,0,1,.53.11.54.54,0,0,1,.16.51l-1.11,5.67a34.51,34.51,0,0,1,2.27-3.68c1.3-1.8,2.36-2.64,3.33-2.64a1.73,1.73,0,0,1,1.45.79,3.19,3.19,0,0,1,.49,1.83,21.24,21.24,0,0,1-.32,2.56s0,.16,0,.18a.54.54,0,0,1-.21.3l-2.2,1.58a.54.54,0,0,1-.85-.51c.12-.94.21-1.7.27-2.26s.09-.9.09-1.08a1.78,1.78,0,0,0,0-.25,13.09,13.09,0,0,0-1.89,2.67c-1.2,2-2.72,4.87-4.5,8.54A.53.53,0,0,1,413.13,147.68Zm-1.22-1.08h.89c.53-1.09,1-2.11,1.52-3.06h0a.56.56,0,0,1-.36-.62l1.69-8.56-1.25.38ZM420.13,135a.87.87,0,0,1,.79.51,1.93,1.93,0,0,1,.19.92c0,.2,0,.6-.1,1.2q0,.44-.12,1l1-.73a20.51,20.51,0,0,0,.29-2.29,2.06,2.06,0,0,0-.29-1.21.62.62,0,0,0-.56-.32c-.18,0-.63.1-1.38.88Z"/><path class="cls-1" d="M426.08,147.14h-1.89l2.66-12.82,2.42-.74L427.41,143a49.53,49.53,0,0,1,4-7c1.17-1.61,2.14-2.41,2.9-2.41a1.18,1.18,0,0,1,1,.55,2.69,2.69,0,0,1,.38,1.52,22.12,22.12,0,0,1-.31,2.48l0,.12-2.2,1.58c.13-1,.22-1.71.28-2.27s.09-.95.09-1.14a1.47,1.47,0,0,0-.12-.66.35.35,0,0,0-.31-.23c-.43,0-1.26,1-2.48,3S427.88,143.45,426.08,147.14Z"/><path class="cls-1" d="M426.08,147.68h-1.89a.55.55,0,0,1-.42-.19.58.58,0,0,1-.11-.46l2.67-12.82a.52.52,0,0,1,.37-.41l2.41-.74a.52.52,0,0,1,.52.11.54.54,0,0,1,.17.51l-1.11,5.67a36.35,36.35,0,0,1,2.26-3.68c1.31-1.8,2.37-2.64,3.34-2.64a1.73,1.73,0,0,1,1.45.79,3.19,3.19,0,0,1,.48,1.83,19.74,19.74,0,0,1-.31,2.56,1.16,1.16,0,0,0,0,.18.59.59,0,0,1-.21.3l-2.2,1.58a.54.54,0,0,1-.85-.51c.12-.94.21-1.7.27-2.26s.09-.9.09-1.08,0-.19,0-.25a13.09,13.09,0,0,0-1.89,2.67c-1.2,2-2.72,4.87-4.5,8.54A.53.53,0,0,1,426.08,147.68Zm-1.22-1.08h.88q.79-1.64,1.53-3.06h0a.55.55,0,0,1-.36-.62l1.69-8.56-1.25.38ZM433.08,135a.88.88,0,0,1,.79.51,2.07,2.07,0,0,1,.18.92q0,.3-.09,1.2,0,.44-.12,1l1-.73a19.4,19.4,0,0,0,.3-2.29,2.14,2.14,0,0,0-.29-1.21.62.62,0,0,0-.56-.32c-.19,0-.63.1-1.38.88Z"/><path class="cls-1" d="M440.64,133.82l2.91-.59c-1,2.94-1.81,5.41-2.38,7.41a18.83,18.83,0,0,0-.87,3.9.7.7,0,0,0,.28.53.91.91,0,0,0,.62.24,2.75,2.75,0,0,0,1.34-.82,33.46,33.46,0,0,0,2.59-2.61l.43.62a27.1,27.1,0,0,1-3.73,3.71,4.55,4.55,0,0,1-2.52,1.18,1.34,1.34,0,0,1-1.15-.56,2.63,2.63,0,0,1-.4-1.58,28.78,28.78,0,0,1,1.1-4.64C439.59,138,440.18,135.76,440.64,133.82Zm2.38-7.19a1.55,1.55,0,0,1,.44-1.12,1.48,1.48,0,0,1,1.11-.45,1.34,1.34,0,0,1,1,.4,1.45,1.45,0,0,1,.39,1.05,1.5,1.5,0,0,1-1.61,1.61,1.33,1.33,0,0,1-1-.35A1.65,1.65,0,0,1,443,126.63Z"/><path class="cls-1" d="M439.31,147.93a1.88,1.88,0,0,1-1.59-.78,3.24,3.24,0,0,1-.5-1.9,23.17,23.17,0,0,1,1.12-4.79c.72-2.52,1.31-4.8,1.77-6.76a.54.54,0,0,1,.42-.41l2.91-.59a.54.54,0,0,1,.52.18.51.51,0,0,1,.1.53c-1,2.93-1.8,5.41-2.38,7.38a17.44,17.44,0,0,0-.84,3.75s0,.05.09.12a.38.38,0,0,0,.27.11s.25,0,1-.69a34.54,34.54,0,0,0,2.54-2.57.58.58,0,0,1,.43-.17.51.51,0,0,1,.41.23l.44.62a.54.54,0,0,1,0,.66,27.73,27.73,0,0,1-3.81,3.79A5,5,0,0,1,439.31,147.93Zm1.78-13.64c-.46,1.89-1,4.07-1.71,6.47a26.93,26.93,0,0,0-1.08,4.49,2.18,2.18,0,0,0,.3,1.27.78.78,0,0,0,.71.33,3.91,3.91,0,0,0,2.14-1,1.27,1.27,0,0,1-1.23-.35,1.21,1.21,0,0,1-.46-.93,18.51,18.51,0,0,1,.89-4c.51-1.79,1.21-4,2.08-6.54Zm3.27-5.63a1.78,1.78,0,0,1-1.41-.53,2.15,2.15,0,0,1,3-3,1.93,1.93,0,0,1,.54,1.42,2.13,2.13,0,0,1-.59,1.56A2.1,2.1,0,0,1,444.36,128.66Zm.21-3.06a.94.94,0,0,0-.72.28,1,1,0,0,0-.28.75,1.2,1.2,0,0,0,.18.77.81.81,0,0,0,.61.18,1,1,0,0,0,1.07-1.07.94.94,0,0,0-.24-.68A.81.81,0,0,0,444.57,125.6Z"/><path class="cls-1" d="M458.51,142.12l.13.84a21.13,21.13,0,0,1-4.17,3.36,7,7,0,0,1-3.52,1.13,3.18,3.18,0,0,1-3.47-3.47,8.23,8.23,0,0,1,.81-3.28,14.79,14.79,0,0,1,2.23-3.53,15.21,15.21,0,0,1,3.24-3,5.56,5.56,0,0,1,3-1,2.09,2.09,0,0,1,1.64.75,2.63,2.63,0,0,1,.65,1.79q0,2.17-2.46,4.46a20.43,20.43,0,0,1-6.55,3.88v.24a1.91,1.91,0,0,0,.54,1.43,2,2,0,0,0,1.47.52,5.6,5.6,0,0,0,2.77-1.06A22.75,22.75,0,0,0,458.51,142.12ZM450,143.21a16.71,16.71,0,0,0,5.37-3.6,6,6,0,0,0,2-4,1.82,1.82,0,0,0-.33-1.18,1.12,1.12,0,0,0-.94-.4c-1.08,0-2.2.86-3.38,2.57A20,20,0,0,0,450,143.21Z"/><path class="cls-1" d="M451,148a3.71,3.71,0,0,1-4-4,8.81,8.81,0,0,1,.86-3.5,15.58,15.58,0,0,1,2.3-3.66,16.26,16.26,0,0,1,3.36-3.06c2.07-1.35,4.12-1.59,5.33-.2a3.12,3.12,0,0,1,.79,2.15c0,1.6-.89,3.23-2.63,4.86a20.6,20.6,0,0,1-6.38,3.84,1.31,1.31,0,0,0,.37.92c.6.58,1.75.55,3.58-.61a22.62,22.62,0,0,0,3.61-3,.56.56,0,0,1,.55-.13.54.54,0,0,1,.37.44l.12.83a.52.52,0,0,1-.15.46,21.69,21.69,0,0,1-4.28,3.45A7.64,7.64,0,0,1,451,148ZM453,135.44a17,17,0,0,0-2.08,2.08,14.75,14.75,0,0,0-2.15,3.4A7.79,7.79,0,0,0,448,144a2.92,2.92,0,0,0,.75,2.18,3.32,3.32,0,0,0,3.21.63,2.55,2.55,0,0,1-1.8-.68,2.44,2.44,0,0,1-.71-1.82v-.24a.55.55,0,0,1,.2-.42h0a.53.53,0,0,1-.18-.54,20.46,20.46,0,0,1,2.84-6.74A9.57,9.57,0,0,1,453,135.44Zm3.15-.83c-.88,0-1.87.79-2.93,2.34a18.46,18.46,0,0,0-2.38,5.26,15.24,15.24,0,0,0,4.16-3,5.49,5.49,0,0,0,1.88-3.59,1.35,1.35,0,0,0-.21-.84A.59.59,0,0,0,456.16,134.61Zm.89-.87a1.57,1.57,0,0,1,.47.39,2.35,2.35,0,0,1,.45,1.52,6.48,6.48,0,0,1-2.18,4.34,14,14,0,0,1-1.05,1,16.2,16.2,0,0,0,1.47-1.19c1.52-1.42,2.29-2.79,2.29-4.07a2.09,2.09,0,0,0-.52-1.44A1.53,1.53,0,0,0,457.05,133.74Z"/><path class="cls-1" d="M478.74,142.19l.06,1.08a19.52,19.52,0,0,1-3.08,2.91,4.38,4.38,0,0,1-2.37,1,1.66,1.66,0,0,1-1.36-.6,2.6,2.6,0,0,1-.5-1.69,10.07,10.07,0,0,1,.22-1.81c.14-.78.35-1.65.62-2.62a19.86,19.86,0,0,1-3.84,5.05,5.8,5.8,0,0,1-3.78,1.74,3.46,3.46,0,0,1-2.6-1,3.73,3.73,0,0,1-1-2.72,7.19,7.19,0,0,1,.83-3.07,16.54,16.54,0,0,1,2.32-3.47,12.85,12.85,0,0,1,3.5-2.83,8.18,8.18,0,0,1,3.81-.92,5.51,5.51,0,0,1,1.13.14,13.42,13.42,0,0,1,1.38.39l7.5-25.77,3.38-1.46-9.33,29.65q-1.08,3.38-1.53,5.15a12.06,12.06,0,0,0-.45,2.65,2.29,2.29,0,0,0,.22,1.15.72.72,0,0,0,.68.37,2.64,2.64,0,0,0,1.53-.62A22.16,22.16,0,0,0,478.74,142.19ZM471.43,134c-1.73,0-3.46,1-5.16,3a9.65,9.65,0,0,0-2.55,6.3,3.21,3.21,0,0,0,.55,2,1.75,1.75,0,0,0,1.46.75,3.63,3.63,0,0,0,2.11-.92,11.73,11.73,0,0,0,2.32-2.58,21.34,21.34,0,0,0,2.26-3.8,7.8,7.8,0,0,0,.87-2.77,2.07,2.07,0,0,0-.48-1.47A1.8,1.8,0,0,0,471.43,134Z"/><path class="cls-1" d="M464.71,147.81a4,4,0,0,1-3-1.19,4.29,4.29,0,0,1-1.15-3.1,7.76,7.76,0,0,1,.89-3.3,16.91,16.91,0,0,1,2.4-3.59,13.46,13.46,0,0,1,3.66-3,8.72,8.72,0,0,1,4.06-1,6,6,0,0,1,1.25.16c.28.06.58.14.9.23l7.34-25.24a.54.54,0,0,1,.31-.35l3.37-1.46a.55.55,0,0,1,.58.1.52.52,0,0,1,.15.56l-9.32,29.65c-.72,2.23-1.23,4-1.53,5.13a12,12,0,0,0-.43,2.51,1.9,1.9,0,0,0,.14.88c.12.2.8.06,1.43-.41a21.29,21.29,0,0,0,2.56-2.62.55.55,0,0,1,.59-.16.55.55,0,0,1,.36.48l.06,1.09a.56.56,0,0,1-.13.39,20.66,20.66,0,0,1-3.17,3c-2.07,1.5-3.58,1.4-4.47.33a3.16,3.16,0,0,1-.62-2,9,9,0,0,1,.16-1.52,16.6,16.6,0,0,1-2.26,2.55A6.36,6.36,0,0,1,464.71,147.81Zm3.09-13.06a12.61,12.61,0,0,0-3.13,2.6,15.68,15.68,0,0,0-2.23,3.34,6.7,6.7,0,0,0-.78,2.83,3.18,3.18,0,0,0,.84,2.35,3.14,3.14,0,0,0,3.35.67,2.31,2.31,0,0,1-2-1,3.79,3.79,0,0,1-.66-2.31,10.21,10.21,0,0,1,2.68-6.65A12,12,0,0,1,467.8,134.75Zm4.61,5.2.13,0a.56.56,0,0,1,.31.65c-.26.94-.47,1.81-.61,2.57a9.81,9.81,0,0,0-.21,1.71,2.09,2.09,0,0,0,.38,1.35,1.12,1.12,0,0,0,.94.4,3.26,3.26,0,0,0,1.7-.67,1.46,1.46,0,0,1-1.64-.59,2.79,2.79,0,0,1-.29-1.42,12.06,12.06,0,0,1,.47-2.78c.29-1.19.81-2.93,1.54-5.19l9-28.51-2.06.88-7.43,25.53a.53.53,0,0,1-.27.33.56.56,0,0,1-.42,0c-.26-.1-.52-.17-.76-.24l0,0a2.61,2.61,0,0,1,.63,1.85,8.2,8.2,0,0,1-.92,3C472.76,139.27,472.59,139.61,472.41,140Zm-1-5.46c-1.56,0-3.16.95-4.75,2.83a9.15,9.15,0,0,0-2.42,6,2.73,2.73,0,0,0,.45,1.66c.58.77,1.51.72,2.79-.27a11.17,11.17,0,0,0,2.21-2.47,20.54,20.54,0,0,0,2.22-3.71,7.33,7.33,0,0,0,.82-2.55,1.56,1.56,0,0,0-.34-1.1A1.25,1.25,0,0,0,471.43,134.49Z"/><path class="cls-1" d="M274.27,61.39c-.54-3.11-.88-6.2-1.64-9.18-2.74-10.62-11.43-14.18-20.08-14s-15.79,4-22.35,9.29l-.47-.41c1.13-1.41,2-3.2,3.44-4.18,9.51-6.55,19.71-9.35,31-5a4.67,4.67,0,0,0,1.64.35,21.07,21.07,0,0,0-13.92-6.48c-10.32-.87-21.51,6.54-24.53,16.51a15.66,15.66,0,0,0,3.82,16.08c4.09,4.26,9.34,5.3,14.94,3.84,4.76-1.23,7.81-6,7.68-11.25-.12-4.76-2.71-8.26-7-9.43-6.62-1.82-12.75,3.4-11.17,9.49.87,3.34,4.44,5.45,7.12,4a3.36,3.36,0,0,0,1.63-2.13,2.74,2.74,0,0,0-1.32-2c-1.31-.73-2.28-1.62-1.87-3.11.22-.78,1.2-1.94,1.76-1.9,1.34.09,3.1.41,3.89,1.32,2.94,3.4.66,9.32-3.75,10.12-3.12.57-6-.08-7.94-2.74a9,9,0,0,1-1-9.68c2.11-4.34,6-6.27,10.67-6.39s7.89,2.21,9.82,6.36c4.47,9.6-1.81,19.59-12.36,20.12-14.11.7-21.11-13.51-16.72-24.65s19.55-22,36.25-14.58c9,4,14.54,15.09,13.09,25.58C274.79,58.72,274.51,60.07,274.27,61.39Z"/><path class="cls-1" d="M285.61,38.28c9.24-4,18.15-2.86,26.94,1.19,5.26,2.43,7.17,4.09,9.06,8.3-1.36-1-2.37-1.74-3.4-2.47-6.58-4.67-13.75-7.63-22-6.95-10.73.88-16.95,7-18.38,17.69-.22,1.61-.36,3.24-.53,4.85-1.23-2.37-1.46-7.63-.58-11.93,4.23-20.6,25.38-23.1,36.86-16,6.16,3.8,11.11,8.61,12.91,16,3.31,13.48-7.95,24.93-21.21,21.52a12.74,12.74,0,0,1-9.56-9.58,13.38,13.38,0,0,1,3.33-13.38c3.22-3.38,8.26-3.9,13-1.57,4.53,2.24,6.52,6,5.83,10.87a7.93,7.93,0,0,1-10.47,6.38c-3.84-1.34-5.52-6.86-2.89-10a4.27,4.27,0,0,1,3-1.4,3.33,3.33,0,0,1,2.52,1.82,3.63,3.63,0,0,1-1.23,2.91c-1,.88-2.44,1.34-1.74,3.06s2.24,2.08,3.88,1.85c3.44-.48,5.71-4.08,4.94-7.69a8.35,8.35,0,0,0-7.78-6.48c-4.56-.31-8.42,1.88-9.75,5.77a11.78,11.78,0,0,0,2.09,12.11c3.06,3.61,7.23,4.17,11.58,3.4a15.58,15.58,0,0,0,11.14-22.27c-3.71-7.22-9.32-12.6-17.5-14.21C298.05,30.55,291.24,32.82,285.61,38.28Z"/><path class="cls-1" d="M329.18,50.55c5.6,4.23,11.07,8.67,16.86,12.63,6.44,4.42,13.51,7.49,21.58,6.8a14,14,0,0,0,6-2c2.37-1.46,2.84-4.88,1.55-7.61A5.38,5.38,0,0,0,369,57.07a4,4,0,0,0-2.77,5.86c.77,1.3,1.87,1.86,3.21.5-.08-.26-.07-.54-.2-.66-1.08-.94-1.81-2.09-.39-3.11s2.38.13,3.12,1.21A3.42,3.42,0,0,1,370.8,66c-2.63,1.45-5.94.56-7.09-1.89s-.62-6,1-7.75c1.82-1.89,5.23-2.36,8.09-1.1a8.66,8.66,0,0,1,5,8,8.24,8.24,0,0,1-5.61,8c-4.19,1.5-8.48,1.14-12.72.27-8.19-1.68-15-6.07-21.49-11.12a87.58,87.58,0,0,1-7.19-6.28,16.43,16.43,0,0,1-2.14-3.54Z"/><path class="cls-1" d="M181.93,63.15c1.45,1.44,2.95,1.15,3.44-.67s.33-3.64-1.4-4.76a4.81,4.81,0,0,0-5.63.13,6.37,6.37,0,0,0-2.7,6.2,5.68,5.68,0,0,0,3.85,5c4.1,1.6,8.27,1.28,12.44.27,8-1.95,14.65-6.55,21-11.53,3.08-2.41,6-5,9.53-7.27-.38,1-.48,2.28-1.18,2.95-7.56,7.29-15.69,13.78-25.83,17.17a27.35,27.35,0,0,1-14.86,1.1c-4.63-1-7.13-4.36-6.95-9a8.19,8.19,0,0,1,6.85-8.11c2.37-.38,4.66-.05,6.28,1.91a7,7,0,0,1,1,7.15c-1.12,3.21-6.05,4-8.32,1.44a3.69,3.69,0,0,1,.87-5.26c.63-.35,1.6-.11,2.41-.14a16.25,16.25,0,0,1,0,2.42C182.68,62.54,182.21,62.83,181.93,63.15Z"/><path class="cls-1" d="M281.88,53.65l.92,1.71c2.59-2.78,5.15-3.41,7.42-1.9,2.07,1.39,2.8,4.92,1.52,7.41-1,2-2.84,2.76-5.29,2,.36-.2.58-.3.79-.44a3.3,3.3,0,0,0,1-4.59c-.85-1.13-2.7-1.15-4.15.15-2.26,2-2.43,4.77-2.28,7.55a14.81,14.81,0,0,0,.36,2C278.89,64.37,278.68,57.91,281.88,53.65Z"/><path class="cls-1" d="M265.28,62.77c-2.75.89-4.54.19-5.62-1.85-1.27-2.4-.53-6.06,1.51-7.46s4.76-.88,7.46,1.83l1-1.77c.47.82.88,1.39,1.16,2,1.86,4.13,1.19,10.15-1.11,11.66-.19-2-.35-4.26-.66-6.48a2.87,2.87,0,0,0-1-1.93,11.82,11.82,0,0,0-3.89-1.56c-.35-.06-1.23,1.31-1.4,2.12C262.38,61,263.06,62.25,265.28,62.77Z"/><path class="cls-1" d="M275.9,31.91c-4.08-3.18-4.07-8.86,0-17.34C276.86,20.48,281.29,26.05,275.9,31.91Z"/><path class="cls-1" d="M344.79,69c-8.79-.16-16.05-6.59-15.64-12.87C334.36,60.41,339.43,64.59,344.79,69Z"/><path class="cls-1" d="M222.28,56.08c0,6.87-7.54,13.08-15.7,13Z"/><path class="cls-1" d="M214.34,52.43c-6.52,7-14.9,10.38-24.1,12l-.48-.65c.59-.51,1.11-1.31,1.79-1.48C202.71,59.56,203.45,59.25,214.34,52.43Z"/><path class="cls-1" d="M336.41,52.27c6.22,4.3,12.7,7.92,20.13,9.53a14.66,14.66,0,0,1,2.59.51,13.18,13.18,0,0,1,2.39,1.74C354.38,64.66,340.91,58.19,336.41,52.27Z"/><path class="cls-1" d="M220,72.35c-1.7-5.14,2.45-8.32,3.52-12.82C225.7,65.27,224.14,70.73,220,72.35Z"/><path class="cls-1" d="M327.59,59.87c4.19,7,4.46,7.82,3.92,12.27C327.84,72.41,325.74,65.26,327.59,59.87Z"/><path class="cls-1" d="M262,27.92c6.43-2,11.53,2.24,11.32,9.43C270.87,32.43,266.83,29.94,262,27.92Z"/><path class="cls-1" d="M289.44,27.86c-4.88,2.09-8.95,4.53-11.23,9.22C277.21,30.63,282.23,26.51,289.44,27.86Z"/><path class="cls-1" d="M284.91,21.59c-.26,3.22-1.7,4.93-4.64,5.63C279.77,23.75,281.43,21.65,284.91,21.59Z"/><path class="cls-1" d="M266.36,21.71c3.13-.24,4.87,1.81,4.67,5.5A5.19,5.19,0,0,1,266.36,21.71Z"/><path class="cls-1" d="M325.3,65.53c-.17,2.57.61,5.14-1.8,6.86C321,70.31,321.16,69.59,325.3,65.53Z"/><path class="cls-1" d="M228,72.41c-2.54-1.84-1.59-4.4-1.87-6.84C230.27,69.61,230.38,70,228,72.41Z"/><path class="cls-1" d="M274.27,196.61c-.54,3.11-.88,6.2-1.64,9.18-2.74,10.62-11.43,14.18-20.08,14s-15.79-4-22.35-9.29l-.47.41c1.13,1.41,2,3.2,3.44,4.18,9.51,6.55,19.71,9.35,31,5a4.67,4.67,0,0,1,1.64-.35,21.07,21.07,0,0,1-13.92,6.48c-10.32.87-21.51-6.54-24.53-16.51a15.66,15.66,0,0,1,3.82-16.08c4.09-4.26,9.34-5.3,14.94-3.84,4.76,1.23,7.81,6,7.68,11.25-.12,4.76-2.71,8.26-7,9.43-6.62,1.82-12.75-3.4-11.17-9.49.87-3.34,4.44-5.45,7.12-4a3.36,3.36,0,0,1,1.63,2.13,2.74,2.74,0,0,1-1.32,2c-1.31.73-2.28,1.62-1.87,3.11.22.78,1.2,1.94,1.76,1.9,1.34-.09,3.1-.41,3.89-1.32,2.94-3.4.66-9.32-3.75-10.12-3.12-.57-6,.08-7.94,2.74a9,9,0,0,0-1,9.68c2.11,4.34,6,6.27,10.67,6.39s7.89-2.21,9.82-6.36c4.47-9.6-1.81-19.59-12.36-20.12-14.11-.7-21.11,13.51-16.72,24.65s19.55,22,36.25,14.58c9-4,14.54-15.09,13.09-25.58C274.79,199.28,274.51,197.93,274.27,196.61Z"/><path class="cls-1" d="M285.61,219.72c9.24,4,18.15,2.86,26.94-1.19,5.26-2.43,7.17-4.09,9.06-8.3-1.36,1-2.37,1.74-3.4,2.47-6.58,4.67-13.75,7.63-22,7-10.73-.88-16.95-7-18.38-17.69-.22-1.61-.36-3.24-.53-4.85-1.23,2.37-1.46,7.63-.58,11.93,4.23,20.6,25.38,23.1,36.86,16,6.16-3.8,11.11-8.61,12.91-16,3.31-13.48-7.95-24.93-21.21-21.52a12.74,12.74,0,0,0-9.56,9.58,13.38,13.38,0,0,0,3.33,13.38c3.22,3.38,8.26,3.9,13,1.57,4.53-2.24,6.52-6,5.83-10.87a7.93,7.93,0,0,0-10.47-6.38c-3.84,1.34-5.52,6.86-2.89,10a4.27,4.27,0,0,0,3,1.4,3.33,3.33,0,0,0,2.52-1.82,3.63,3.63,0,0,0-1.23-2.91c-1-.88-2.44-1.34-1.74-3.06s2.24-2.08,3.88-1.85c3.44.48,5.71,4.08,4.94,7.69a8.35,8.35,0,0,1-7.78,6.48c-4.56.31-8.42-1.88-9.75-5.77a11.78,11.78,0,0,1,2.09-12.11c3.06-3.61,7.23-4.17,11.58-3.4a15.58,15.58,0,0,1,11.14,22.27c-3.71,7.22-9.32,12.6-17.5,14.21C298.05,227.45,291.24,225.18,285.61,219.72Z"/><path class="cls-1" d="M329.18,207.45c5.6-4.23,11.07-8.67,16.86-12.63,6.44-4.42,13.51-7.49,21.58-6.8a14,14,0,0,1,6,2c2.37,1.46,2.84,4.88,1.55,7.61a5.38,5.38,0,0,1-6.14,3.26,4,4,0,0,1-2.77-5.86c.77-1.3,1.87-1.86,3.21-.5-.08.26-.07.54-.2.66-1.08.94-1.81,2.09-.39,3.11s2.38-.13,3.12-1.21A3.42,3.42,0,0,0,370.8,192c-2.63-1.45-5.94-.56-7.09,1.89s-.62,6,1,7.75c1.82,1.89,5.23,2.36,8.09,1.1a8.66,8.66,0,0,0,5-8.05,8.24,8.24,0,0,0-5.61-8c-4.19-1.5-8.48-1.14-12.72-.27-8.19,1.68-15,6.07-21.49,11.12a87.58,87.58,0,0,0-7.19,6.28,16.43,16.43,0,0,0-2.14,3.54Z"/><path class="cls-1" d="M181.93,194.85c1.45-1.44,2.95-1.15,3.44.67s.33,3.64-1.4,4.76a4.81,4.81,0,0,1-5.63-.13,6.37,6.37,0,0,1-2.7-6.2,5.68,5.68,0,0,1,3.85-5c4.1-1.6,8.27-1.28,12.44-.27,8,1.95,14.65,6.55,21,11.53,3.08,2.41,6,5,9.53,7.27-.38-1-.48-2.28-1.18-2.95-7.56-7.29-15.69-13.78-25.83-17.17a27.35,27.35,0,0,0-14.86-1.1c-4.63,1-7.13,4.36-6.95,9a8.19,8.19,0,0,0,6.85,8.11c2.37.38,4.66,0,6.28-1.91a7,7,0,0,0,1-7.15c-1.12-3.21-6.05-4-8.32-1.44a3.69,3.69,0,0,0,.87,5.26c.63.35,1.6.11,2.41.14a16.25,16.25,0,0,0,0-2.42C182.68,195.46,182.21,195.17,181.93,194.85Z"/><path class="cls-1" d="M281.88,204.35l.92-1.71c2.59,2.78,5.15,3.41,7.42,1.9,2.07-1.39,2.8-4.92,1.52-7.41-1-2-2.84-2.76-5.29-2,.36.2.58.3.79.44a3.3,3.3,0,0,1,1,4.59c-.85,1.13-2.7,1.15-4.15-.15-2.26-2-2.43-4.77-2.28-7.55a14.81,14.81,0,0,1,.36-2C278.89,193.63,278.68,200.09,281.88,204.35Z"/><path class="cls-1" d="M265.28,195.23c-2.75-.89-4.54-.19-5.62,1.85-1.27,2.4-.53,6.06,1.51,7.46s4.76.88,7.46-1.83l1,1.77c.47-.82.88-1.39,1.16-2,1.86-4.13,1.19-10.15-1.11-11.66-.19,2-.35,4.26-.66,6.48a2.87,2.87,0,0,1-1,1.93,11.82,11.82,0,0,1-3.89,1.56c-.35.06-1.23-1.31-1.4-2.12C262.38,197,263.06,195.75,265.28,195.23Z"/><path class="cls-1" d="M275.9,226.09c-4.08,3.18-4.07,8.86,0,17.34C276.86,237.52,281.29,232,275.9,226.09Z"/><path class="cls-1" d="M344.79,189c-8.79.16-16.05,6.59-15.64,12.87C334.36,197.59,339.43,193.41,344.79,189Z"/><path class="cls-1" d="M222.28,201.92c0-6.87-7.54-13.08-15.7-12.95Z"/><path class="cls-1" d="M214.34,205.57c-6.52-7-14.9-10.38-24.1-12l-.48.65c.59.51,1.11,1.31,1.79,1.48C202.71,198.44,203.45,198.75,214.34,205.57Z"/><path class="cls-1" d="M336.41,205.73c6.22-4.3,12.7-7.92,20.13-9.53a14.66,14.66,0,0,0,2.59-.51,13.18,13.18,0,0,0,2.39-1.74C354.38,193.34,340.91,199.81,336.41,205.73Z"/><path class="cls-1" d="M220,185.65c-1.7,5.14,2.45,8.32,3.52,12.82C225.7,192.73,224.14,187.27,220,185.65Z"/><path class="cls-1" d="M327.59,198.13c4.19-7,4.46-7.82,3.92-12.27C327.84,185.59,325.74,192.74,327.59,198.13Z"/><path class="cls-1" d="M262,230.08c6.43,2,11.53-2.24,11.32-9.43C270.87,225.57,266.83,228.06,262,230.08Z"/><path class="cls-1" d="M289.44,230.14c-4.88-2.09-8.95-4.53-11.23-9.22C277.21,227.37,282.23,231.49,289.44,230.14Z"/><path class="cls-1" d="M284.91,236.41c-.26-3.22-1.7-4.93-4.64-5.63C279.77,234.25,281.43,236.35,284.91,236.41Z"/><path class="cls-1" d="M266.36,236.29c3.13.24,4.87-1.81,4.67-5.5A5.19,5.19,0,0,0,266.36,236.29Z"/><path class="cls-1" d="M325.3,192.47c-.17-2.57.61-5.14-1.8-6.86C321,187.69,321.16,188.41,325.3,192.47Z"/><path class="cls-1" d="M228,185.59c-2.54,1.84-1.59,4.4-1.87,6.84C230.27,188.39,230.38,188,228,185.59Z"/><path class="cls-1" d="M499.29,190.7H382.53v-4.32H496a39.56,39.56,0,0,1,25.21-25.25V96.87A39.57,39.57,0,0,1,496,71.63H382.53V67.29H499.29l.44,1.59A35.11,35.11,0,0,0,524,93.17l1.58.45v70.76l-1.58.45a35.11,35.11,0,0,0-24.27,24.29Z"/><path class="cls-1" d="M168.94,190.7H52.17l-.44-1.58a35.11,35.11,0,0,0-24.26-24.29l-1.59-.45V93.62l1.59-.45A35.11,35.11,0,0,0,51.73,68.88l.44-1.59H168.94v4.34H55.43A39.57,39.57,0,0,1,30.22,96.87v64.26a39.56,39.56,0,0,1,25.21,25.25H168.94Z"/><path class="cls-1" d="M168.94,199.57H44.14v-1.08a26.09,26.09,0,0,0-26-26.08H17V85.59h1.09a26.09,26.09,0,0,0,26-26.08V58.43H168.93V60.6H46.29a28.26,28.26,0,0,1-27.1,27.13v82.54a28.26,28.26,0,0,1,27.1,27.13H168.94Z"/><path class="cls-1" d="M507.32,199.57H382.53V197.4H505.18a28.25,28.25,0,0,1,27.1-27.13V87.73a28.25,28.25,0,0,1-27.1-27.13H382.53V58.43H507.32v1.08a26.09,26.09,0,0,0,26,26.08h1.08v86.82h-1.08a26.09,26.09,0,0,0-26,26.08Z"/></svg>