<svg id="图层_1" data-name="图层 1" xmlns="http://www.w3.org/2000/svg" viewBox="0 0 518.4 185.6"><defs><style>.cls-1{fill:#fff;}</style></defs><title>文案+花边-2款定稿</title><path class="cls-1" d="M132.53,93.41q-1.11,3.69-2.45,7t-2.54,5.88q-1.38,3-2.79,5.52c-.75,1.34-1.39,2.51-1.9,3.5s-.93,1.85-1.24,2.55a16.69,16.69,0,0,0-.67,1.76,4.54,4.54,0,0,0-.2,1.15,1.22,1.22,0,0,0,.2.73,1.33,1.33,0,0,0,.48.38,1.72,1.72,0,0,0,.56.17c.19,0,.34,0,.46,0a5.15,5.15,0,0,0,1.86-.44,15.61,15.61,0,0,0,2.34-1.22,27.11,27.11,0,0,0,2.64-1.92A31.68,31.68,0,0,0,132,116c.9-.94,1.78-2,2.64-3a31,31,0,0,0,2.35-3.47,45.33,45.33,0,0,0,2.74-5.52,11.64,11.64,0,0,1-1-2.62,11.22,11.22,0,0,1-.31-2.55A6,6,0,0,1,139,96a1.67,1.67,0,0,1,1.52-1,1.52,1.52,0,0,1,.9.26,1.88,1.88,0,0,1,.59.69,3.67,3.67,0,0,1,.33.93,5.54,5.54,0,0,1,.1,1,11.37,11.37,0,0,1-.3,2.41,24,24,0,0,1-.87,2.93c-.38,1-.84,2.15-1.39,3.32s-1.19,2.36-1.9,3.57a31.74,31.74,0,0,1-2.37,3.51,40.16,40.16,0,0,1-2.72,3.16,35.53,35.53,0,0,1-2.87,2.68,26.87,26.87,0,0,1-2.83,2.07,16.22,16.22,0,0,1-2.61,1.34,6.12,6.12,0,0,1-2.17.48,4.35,4.35,0,0,1-2.77-.8,3.13,3.13,0,0,1-1-2.57,7.44,7.44,0,0,1,.26-1.91,12.94,12.94,0,0,1,.76-2.07c.33-.75.74-1.56,1.23-2.44s1.06-1.89,1.7-3a73.83,73.83,0,0,1-4.81,5.74,39.87,39.87,0,0,1-5.49,4.95,29,29,0,0,1-2.41,1.64,18,18,0,0,1-2,1.06,8.72,8.72,0,0,1-1.64.57,6.13,6.13,0,0,1-1.33.17,4.3,4.3,0,0,1-1.51-.25,2.81,2.81,0,0,1-1-.66,2.43,2.43,0,0,1-.61-1,4.06,4.06,0,0,1-.19-1.23,6.73,6.73,0,0,1,.34-2.12,9.77,9.77,0,0,1,1-2c.49-.77,1.07-1.63,1.75-2.56l2.11-2.94q1.11-1.55,2.19-3.15c.72-1.06,1.36-2.13,1.94-3.18a21.56,21.56,0,0,0,1.38-3.08,8.43,8.43,0,0,0,.52-2.8,8.73,8.73,0,0,0-.81-3.79,8.2,8.2,0,0,0-2.33-2.94A10.9,10.9,0,0,0,106,91a16.37,16.37,0,0,0-4.82-.67,20.51,20.51,0,0,0-6.75,1.07,16.47,16.47,0,0,0-5.29,3,13.49,13.49,0,0,0-3.46,4.43,12.47,12.47,0,0,0-1.23,5.49,9.09,9.09,0,0,0,.57,3.29,7.27,7.27,0,0,0,1.6,2.55,7.1,7.1,0,0,0,2.52,1.66,9,9,0,0,0,3.31.59,10.14,10.14,0,0,0,3.92-.75,11.6,11.6,0,0,0,3.28-2,15.38,15.38,0,0,0,2.65-3,20.83,20.83,0,0,0,2-3.75l1,.36a18.84,18.84,0,0,1-5.73,8.12A13.46,13.46,0,0,1,91.07,114a9.7,9.7,0,0,1-3.77-.7,8.5,8.5,0,0,1-2.9-2,8.79,8.79,0,0,1-1.86-3,10.83,10.83,0,0,1-.65-3.84,13,13,0,0,1,3.42-9,15.64,15.64,0,0,1,3.52-2.91,23.11,23.11,0,0,1,4-2,23.86,23.86,0,0,1,4.06-1.1,20.93,20.93,0,0,1,3.56-.35,20.26,20.26,0,0,1,5.53.73,12.84,12.84,0,0,1,4.4,2.16,10,10,0,0,1,2.9,3.55,10.9,10.9,0,0,1,1.05,4.9,14.91,14.91,0,0,1-.77,4.49,20.84,20.84,0,0,1-2.66,5.3q-1.74,2.6-3.16,4.52c-1,1.28-1.77,2.38-2.44,3.31s-1.2,1.7-1.57,2.33a3.15,3.15,0,0,0-.56,1.56,1.27,1.27,0,0,0,.47,1,1.9,1.9,0,0,0,1.29.4,6.81,6.81,0,0,0,2.86-.8,23.17,23.17,0,0,0,3.78-2.36,35.94,35.94,0,0,0,4-3.39q1.89-1.84,3.57-3.84c1.12-1.33,2.18-2.68,3.17-4.07s1.92-2.73,2.77-4.06,1.62-2.62,2.31-3.86,1.32-2.38,1.85-3.43,1-2,1.36-2.78.66-1.45.85-1.91Zm7.82,9a18,18,0,0,0,.74-2.58,10.72,10.72,0,0,0,.22-2c0-.1,0-.25,0-.45a2.7,2.7,0,0,0-.09-.58,1.48,1.48,0,0,0-.23-.49.52.52,0,0,0-.43-.21q-.37,0-.63.75a5.85,5.85,0,0,0-.26,1.85,10.29,10.29,0,0,0,.16,1.77A9.43,9.43,0,0,0,140.35,102.43Z"/><path class="cls-1" d="M143.49,115.38a4.78,4.78,0,0,0-.06.53,4.89,4.89,0,0,0,0,.54,4.79,4.79,0,0,0,.24,1.52,3.47,3.47,0,0,0,.69,1.27,3.07,3.07,0,0,0,1.14.86,3.59,3.59,0,0,0,1.54.31,9.45,9.45,0,0,0,5.64-2,22.57,22.57,0,0,0,5.42-6.28l.75.66a26.4,26.4,0,0,1-3,4.14,18.13,18.13,0,0,1-3,2.73,11.17,11.17,0,0,1-2.95,1.51,9.1,9.1,0,0,1-2.77.47,8.21,8.21,0,0,1-2-.27,6,6,0,0,1-2-.89,4.84,4.84,0,0,1-1.49-1.67,5.3,5.3,0,0,1-.59-2.61,9.3,9.3,0,0,1,.57-3.22,13.06,13.06,0,0,1,1.48-2.88,14.8,14.8,0,0,1,2.09-2.44,16.72,16.72,0,0,1,2.4-1.88,12.74,12.74,0,0,1,2.37-1.22,5.93,5.93,0,0,1,2-.43,4.08,4.08,0,0,1,1.18.18,3.07,3.07,0,0,1,1.08.55,2.81,2.81,0,0,1,.78,1,3.46,3.46,0,0,1,.3,1.5,4.69,4.69,0,0,1-.54,2.21,7.57,7.57,0,0,1-1.46,1.92,11.14,11.14,0,0,1-2.12,1.58,16.18,16.18,0,0,1-2.52,1.2,19.08,19.08,0,0,1-2.65.77A13,13,0,0,1,143.49,115.38Zm.18-1a12,12,0,0,0,2.81-.63,12.74,12.74,0,0,0,2.41-1.14,14.25,14.25,0,0,0,2-1.48,10.5,10.5,0,0,0,1.43-1.63,7.78,7.78,0,0,0,.89-1.58,3.64,3.64,0,0,0,.32-1.36,1.37,1.37,0,0,0-.33-1,1,1,0,0,0-.77-.36,4.59,4.59,0,0,0-2.2.7,11.62,11.62,0,0,0-2.45,1.94,18.26,18.26,0,0,0-2.31,2.91A16.82,16.82,0,0,0,143.67,114.42Z"/><path class="cls-1" d="M182.91,91.18c-.17.24-.43.63-.8,1.18s-.81,1.2-1.3,2-1,1.6-1.59,2.52-1.14,1.87-1.72,2.85-1.12,2-1.67,3-1,2-1.43,2.89c-.66,1.43-1.19,2.7-1.62,3.82s-.76,2.12-1,3a17.08,17.08,0,0,0-.51,2.28,11.15,11.15,0,0,0-.15,1.66,2.91,2.91,0,0,0,.39,1.76,1.27,1.27,0,0,0,1.06.49,2.78,2.78,0,0,0,1.33-.35,6.4,6.4,0,0,0,1.22-.92,9.31,9.31,0,0,0,1.12-1.27c.34-.47.67-1,1-1.42s.58-.93.83-1.36.48-.8.67-1.09l.8.62c-.16.27-.37.62-.61,1.06s-.52.92-.84,1.43a16.3,16.3,0,0,1-1.07,1.58,10.56,10.56,0,0,1-1.32,1.43,6.42,6.42,0,0,1-1.61,1.06,4.47,4.47,0,0,1-2.94.28,3,3,0,0,1-1-.47,3.11,3.11,0,0,1-.83-.92,3.9,3.9,0,0,1-.46-1.51,14.3,14.3,0,0,1-3.26,2.73,5.92,5.92,0,0,1-3,.93,5.49,5.49,0,0,1-1.57-.25,4.65,4.65,0,0,1-1.62-.84,5,5,0,0,1-1.27-1.6,5.34,5.34,0,0,1-.51-2.46,9.61,9.61,0,0,1,.51-3.14,11.63,11.63,0,0,1,1.38-2.78,13.39,13.39,0,0,1,2-2.31,13.71,13.71,0,0,1,2.35-1.76,12,12,0,0,1,2.46-1.13,7.46,7.46,0,0,1,2.33-.4,5.82,5.82,0,0,1,2.27.36,5.11,5.11,0,0,1,1.25.71c.21-.42.49-1,.85-1.59s.77-1.37,1.24-2.16,1-1.65,1.59-2.54,1.19-1.81,1.84-2.72,1.35-1.82,2.07-2.71,1.45-1.72,2.19-2.5ZM168.8,115a19.63,19.63,0,0,1,.77-3.89,37.15,37.15,0,0,1,2-5.15,2,2,0,0,0-.88-.73,3.11,3.11,0,0,0-1.28-.25,5.93,5.93,0,0,0-2.22.44,10,10,0,0,0-2.16,1.2,12.62,12.62,0,0,0-2,1.8,13.58,13.58,0,0,0-1.59,2.21,11.47,11.47,0,0,0-1.07,2.47,8.6,8.6,0,0,0-.39,2.53,4.23,4.23,0,0,0,.7,2.6,2.23,2.23,0,0,0,1.88.94,4.21,4.21,0,0,0,1.23-.22,6.83,6.83,0,0,0,1.46-.73A12.14,12.14,0,0,0,167,117,19.28,19.28,0,0,0,168.8,115Z"/><path class="cls-1" d="M203.56,91.18l-.8,1.18c-.37.55-.8,1.2-1.29,2s-1,1.6-1.59,2.52-1.15,1.87-1.72,2.85-1.13,2-1.67,3-1,2-1.44,2.89c-.65,1.43-1.19,2.7-1.61,3.82s-.76,2.12-1,3a20.93,20.93,0,0,0-.51,2.28,12.46,12.46,0,0,0-.14,1.66,2.91,2.91,0,0,0,.39,1.76,1.26,1.26,0,0,0,1.05.49,2.73,2.73,0,0,0,1.33-.35,6.79,6.79,0,0,0,1.23-.92,9.26,9.26,0,0,0,1.11-1.27c.35-.47.68-1,1-1.42l.84-1.36c.25-.43.47-.8.66-1.09l.81.62c-.17.27-.37.62-.62,1.06s-.52.92-.83,1.43a16.3,16.3,0,0,1-1.07,1.58,10,10,0,0,1-1.33,1.43,6.36,6.36,0,0,1-1.6,1.06,4.37,4.37,0,0,1-1.91.41,4.27,4.27,0,0,1-1-.13,3.05,3.05,0,0,1-1-.47,3.09,3.09,0,0,1-.82-.92,3.89,3.89,0,0,1-.47-1.51,14.27,14.27,0,0,1-3.25,2.73,6,6,0,0,1-3,.93,5.55,5.55,0,0,1-1.57-.25,4.53,4.53,0,0,1-1.61-.84,4.87,4.87,0,0,1-1.27-1.6,5.33,5.33,0,0,1-.52-2.46,9.62,9.62,0,0,1,.52-3.14,11.63,11.63,0,0,1,1.38-2.78,13.33,13.33,0,0,1,2-2.31,14.11,14.11,0,0,1,2.35-1.76A12.07,12.07,0,0,1,187,104.1a7.45,7.45,0,0,1,2.32-.4,5.84,5.84,0,0,1,2.28.36,5,5,0,0,1,1.24.71c.21-.42.49-1,.85-1.59s.77-1.37,1.25-2.16,1-1.65,1.58-2.54,1.2-1.81,1.85-2.72,1.34-1.82,2.06-2.71,1.45-1.72,2.2-2.5ZM189.46,115a18.29,18.29,0,0,1,.77-3.89,38.26,38.26,0,0,1,2-5.15,1.93,1.93,0,0,0-.88-.73,3,3,0,0,0-1.28-.25,5.92,5.92,0,0,0-2.21.44,10,10,0,0,0-2.16,1.2,11.77,11.77,0,0,0-2,1.8,14.27,14.27,0,0,0-1.6,2.21,12,12,0,0,0-1.07,2.47,8.6,8.6,0,0,0-.39,2.53,4.3,4.3,0,0,0,.7,2.6,2.23,2.23,0,0,0,1.89.94,4.1,4.1,0,0,0,1.22-.22,6.61,6.61,0,0,0,1.46-.73,11.56,11.56,0,0,0,1.66-1.29A20.51,20.51,0,0,0,189.46,115Z"/><path class="cls-1" d="M205.21,105.64c-.19.39-.46.89-.81,1.53s-.72,1.32-1.13,2.07-.81,1.54-1.22,2.36-.79,1.63-1.13,2.41a23.31,23.31,0,0,0-.81,2.19,6,6,0,0,0-.31,1.74,1.18,1.18,0,0,0,.26.88,1.11,1.11,0,0,0,.76.23,3.12,3.12,0,0,0,1.79-.6,9.8,9.8,0,0,0,1.72-1.57,19.78,19.78,0,0,0,1.68-2.22l1.65-2.51.81.62c-.44.77-.92,1.6-1.46,2.47a17.79,17.79,0,0,1-1.82,2.44,9.67,9.67,0,0,1-2.21,1.86,4.92,4.92,0,0,1-2.62.74,2.59,2.59,0,0,1-2.05-.8,3,3,0,0,1-.72-2.08,7.94,7.94,0,0,1,.69-3.11,20.58,20.58,0,0,1,1.73-3.22,32.22,32.22,0,0,1,2.25-3.07c.81-1,1.56-1.87,2.24-2.67Zm4.17-5a2.33,2.33,0,0,1-.22.93,3.57,3.57,0,0,1-.57.86,3.23,3.23,0,0,1-.77.62,1.72,1.72,0,0,1-.85.24.69.69,0,0,1-.58-.27,1.19,1.19,0,0,1-.2-.68,3.32,3.32,0,0,1,.14-.85,3.63,3.63,0,0,1,.4-.93,3.25,3.25,0,0,1,.64-.74,1.35,1.35,0,0,1,.87-.31,1.11,1.11,0,0,1,.81.35A1.13,1.13,0,0,1,209.38,100.69Z"/><path class="cls-1" d="M226.27,108.89a5.89,5.89,0,0,1-.34,2,14.59,14.59,0,0,1-.84,2c-.34.66-.71,1.31-1.09,1.94s-.75,1.26-1.1,1.85a14.88,14.88,0,0,0-.84,1.71,3.79,3.79,0,0,0-.34,1.48.85.85,0,0,0,.23.69.74.74,0,0,0,.49.18,3.17,3.17,0,0,0,1.89-.84,15.49,15.49,0,0,0,2.13-2.1c.72-.85,1.43-1.77,2.15-2.76s1.36-1.94,1.94-2.83l.8.62c-.12.18-.34.53-.65,1.06s-.7,1.13-1.16,1.8-1,1.38-1.54,2.12a19.92,19.92,0,0,1-1.84,2,11.49,11.49,0,0,1-2,1.52,4.1,4.1,0,0,1-2.08.6,2.72,2.72,0,0,1-1.09-.2,2.45,2.45,0,0,1-.84-.55,2.84,2.84,0,0,1-.55-.84,2.67,2.67,0,0,1-.2-1,5.23,5.23,0,0,1,.39-1.88,18.4,18.4,0,0,1,1-2.09c.39-.71.81-1.43,1.27-2.15s.89-1.41,1.27-2.06a19.55,19.55,0,0,0,1-1.82,3.46,3.46,0,0,0,.39-1.43,1.79,1.79,0,0,0-.37-1.16,1.24,1.24,0,0,0-1-.47,3.22,3.22,0,0,0-1.65.59,12.87,12.87,0,0,0-2.09,1.73,35.66,35.66,0,0,0-2.53,2.79q-1.38,1.66-3,3.78c-.61.82-1.2,1.61-1.78,2.36-.25.33-.51.66-.76,1s-.5.68-.76,1-.49.65-.71,1-.42.57-.6.79l-2-.8,2.61-3.59c.37-.51.75-1.05,1.13-1.63s.77-1.17,1.15-1.79.74-1.24,1.08-1.86.66-1.23,1-1.83a13.55,13.55,0,0,0,.89-2.22,5.58,5.58,0,0,0,.24-1.41,1,1,0,0,0-.22-.79.9.9,0,0,0-.62-.19,1.63,1.63,0,0,0-1,.43,8.46,8.46,0,0,0-1.13,1.12c-.38.45-.77,1-1.17,1.54s-.77,1.14-1.12,1.7-.69,1.1-1,1.6l-.78,1.23-.81-.62c.76-1.19,1.45-2.28,2.06-3.27a26.89,26.89,0,0,1,1.79-2.55,9,9,0,0,1,1.67-1.66,2.91,2.91,0,0,1,1.73-.59,2.37,2.37,0,0,1,.94.2,2.19,2.19,0,0,1,.8.59,2.86,2.86,0,0,1,.55.95,3.88,3.88,0,0,1,.2,1.29,5.58,5.58,0,0,1-.13,1.2,18,18,0,0,1,1.82-1.58,12.6,12.6,0,0,1,1.56-1,6.08,6.08,0,0,1,1.32-.52,4.11,4.11,0,0,1,1.09-.16,3.49,3.49,0,0,1,1,.16,2.62,2.62,0,0,1,1.05.58,3.44,3.44,0,0,1,.83,1.17A4.58,4.58,0,0,1,226.27,108.89Z"/><path class="cls-1" d="M239,119.7a12.55,12.55,0,0,1-2.4,1.26,6.51,6.51,0,0,1-2.37.48,6.25,6.25,0,0,1-1.7-.25,4.13,4.13,0,0,1-2.66-2.32,5.44,5.44,0,0,1-.43-2.31,8.71,8.71,0,0,1,.6-3.21,11.65,11.65,0,0,1,1.6-2.86,15,15,0,0,1,2.3-2.42,16.84,16.84,0,0,1,2.66-1.86,14.05,14.05,0,0,1,2.73-1.19,8.18,8.18,0,0,1,2.47-.43,6.27,6.27,0,0,1,1.86.24,5,5,0,0,1,1.31.58,3.25,3.25,0,0,1,.84.74,6.91,6.91,0,0,1,.52.76l1.2-1.58.74.49s-.12.25-.36.7-.55,1.06-.94,1.82L245.66,111c-.51,1-1,2.1-1.6,3.24s-1.12,2.32-1.69,3.54-1.12,2.42-1.64,3.59c1.35-.77,2.54-1.52,3.56-2.23a27.05,27.05,0,0,0,2.76-2.16,21.17,21.17,0,0,0,2.19-2.27,28.75,28.75,0,0,0,1.89-2.56l.83.62a22.65,22.65,0,0,1-1.93,2.68,21.58,21.58,0,0,1-2.43,2.46,35.58,35.58,0,0,1-3.25,2.49q-1.86,1.27-4.42,2.82a71.26,71.26,0,0,1-4.08,8.59,33.78,33.78,0,0,1-3.71,5.38,12.38,12.38,0,0,1-3.25,2.78,5.87,5.87,0,0,1-2.71.81,4.57,4.57,0,0,1-1.06-.13,2.88,2.88,0,0,1-1.06-.47,2.82,2.82,0,0,1-.81-1,3.47,3.47,0,0,1-.32-1.61,7.69,7.69,0,0,1,1-3.7,15.06,15.06,0,0,1,2.87-3.63,32.87,32.87,0,0,1,4.61-3.59q2.73-1.78,6.19-3.58c.28-.64.54-1.25.78-1.82S238.83,120.18,239,119.7Zm-12.86,19.94a3.19,3.19,0,0,0,1.76-.62,10.23,10.23,0,0,0,1.85-1.71,22.24,22.24,0,0,0,1.85-2.5c.61-1,1.21-2,1.8-3.05s1.16-2.18,1.71-3.3,1.06-2.24,1.55-3.32a33.66,33.66,0,0,0-5.67,3.62,29.2,29.2,0,0,0-3.85,3.6,15,15,0,0,0-2.17,3.09,5.43,5.43,0,0,0-.68,2.12,2.54,2.54,0,0,0,.4,1.49A1.64,1.64,0,0,0,226.18,139.64Zm14-22.39c.4-.76.8-1.51,1.2-2.24s.8-1.47,1.22-2.21.88-1.49,1.36-2.26,1-1.57,1.62-2.4a2.21,2.21,0,0,0-.23-.7,2.47,2.47,0,0,0-.49-.65,2.43,2.43,0,0,0-.8-.5,2.94,2.94,0,0,0-1.16-.2,8.12,8.12,0,0,0-1.72.2,9.1,9.1,0,0,0-2,.69,11.19,11.19,0,0,0-2.17,1.31,13,13,0,0,0-2.16,2.07,16.22,16.22,0,0,0-2.36,3.65,8.06,8.06,0,0,0-.82,3.3,3,3,0,0,0,.73,2.2,2.69,2.69,0,0,0,2,.75,5.94,5.94,0,0,0,2.84-.83A15.42,15.42,0,0,0,240.19,117.25Z"/><path class="cls-1" d="M288.43,113.88a15.79,15.79,0,0,1-3.72-3.44,15,15,0,0,1-2-3.64,14.78,14.78,0,0,1-.88-3.54,30.8,30.8,0,0,1-.19-3.17,19.39,19.39,0,0,1,.48-4.47A17,17,0,0,1,283.34,92a13.05,13.05,0,0,1,1.83-2.77,11.56,11.56,0,0,1,2.17-2,9.1,9.1,0,0,1,2.28-1.16,7,7,0,0,1,2.16-.38,5,5,0,0,1,2.78.82,7.12,7.12,0,0,1,2.2,2.29,12.72,12.72,0,0,1,1.44,3.54,18.42,18.42,0,0,1,.53,4.54,29.6,29.6,0,0,1-.69,6.4,28.38,28.38,0,0,1-2,5.93,24.79,24.79,0,0,1-3.24,5.14,21.67,21.67,0,0,1-4.36,4,19.92,19.92,0,0,1-5.37,2.65,20.36,20.36,0,0,1-6.29,1,18.2,18.2,0,0,1-5.44-.78,15.08,15.08,0,0,1-4.3-2.07,10.22,10.22,0,0,1-2.83-3,6.62,6.62,0,0,1-1-3.49,6.39,6.39,0,0,1,.55-2.82,5,5,0,0,1,1.48-1.83,5.94,5.94,0,0,1,2.11-1,9.86,9.86,0,0,1,2.43-.3,15.76,15.76,0,0,1,4.51.64,18,18,0,0,1,4.15,1.83,20.29,20.29,0,0,1,3.68,2.85,26.67,26.67,0,0,1,3.17,3.72l-1,.67a22.54,22.54,0,0,0-3.37-3.88,20.65,20.65,0,0,0-3.49-2.56,14.09,14.09,0,0,0-3.39-1.4,12.4,12.4,0,0,0-3-.43,7.73,7.73,0,0,0-2.41.34,4.8,4.8,0,0,0-1.66.91,3.54,3.54,0,0,0-1,1.41,5.16,5.16,0,0,0-.31,1.78,6.16,6.16,0,0,0,.92,3.26,8.66,8.66,0,0,0,2.45,2.61,12.42,12.42,0,0,0,3.54,1.73,14.21,14.21,0,0,0,4.19.62,16,16,0,0,0,9.07-2.67,18,18,0,0,0,3.36-2.93,23.92,23.92,0,0,0,2.66-3.64,27.2,27.2,0,0,0,2-4,36.44,36.44,0,0,0,1.36-4.19,34.94,34.94,0,0,0,.79-4.06,28.32,28.32,0,0,0,.25-3.64,16.57,16.57,0,0,0-.39-3.8,10.48,10.48,0,0,0-1-2.74,5.11,5.11,0,0,0-1.44-1.67,2.83,2.83,0,0,0-1.63-.57,4.65,4.65,0,0,0-2.68,1,9,9,0,0,0-2.46,2.79,16.6,16.6,0,0,0-1.79,4.48,23.42,23.42,0,0,0-.69,6,20.24,20.24,0,0,0,.45,4.47,16.46,16.46,0,0,0,1.18,3.44,12,12,0,0,0,1.58,2.47A9.05,9.05,0,0,0,289,113.1Z"/><path class="cls-1" d="M316.22,108.89a5.89,5.89,0,0,1-.34,2,14.59,14.59,0,0,1-.84,2c-.35.66-.71,1.31-1.09,1.94s-.75,1.26-1.1,1.85a14.88,14.88,0,0,0-.84,1.71,3.79,3.79,0,0,0-.34,1.48.85.85,0,0,0,.23.69.74.74,0,0,0,.49.18,3.17,3.17,0,0,0,1.89-.84,15.49,15.49,0,0,0,2.13-2.1c.72-.85,1.43-1.77,2.15-2.76s1.36-1.94,1.94-2.83l.8.62c-.12.18-.34.53-.65,1.06s-.7,1.13-1.16,1.8-1,1.38-1.54,2.12a19.92,19.92,0,0,1-1.84,2,11.49,11.49,0,0,1-2,1.52,4.1,4.1,0,0,1-2.08.6,2.8,2.8,0,0,1-1.1-.2,2.51,2.51,0,0,1-.83-.55,2.84,2.84,0,0,1-.55-.84,2.67,2.67,0,0,1-.2-1,5.23,5.23,0,0,1,.39-1.88,18.4,18.4,0,0,1,1-2.09c.39-.71.81-1.43,1.27-2.15s.89-1.41,1.27-2.06a19.55,19.55,0,0,0,1-1.82,3.46,3.46,0,0,0,.39-1.43,1.79,1.79,0,0,0-.37-1.16,1.24,1.24,0,0,0-1-.47,3.22,3.22,0,0,0-1.65.59,12.89,12.89,0,0,0-2.1,1.73c-.77.76-1.61,1.69-2.53,2.79s-1.9,2.37-3,3.78c-.61.82-1.2,1.61-1.78,2.36-.25.33-.51.66-.76,1s-.5.68-.76,1-.49.65-.71,1-.42.57-.6.79l-2-.8,2.6-3.59c.38-.51.76-1.05,1.14-1.63s.77-1.17,1.15-1.79.74-1.24,1.08-1.86.66-1.23,1-1.83a13.55,13.55,0,0,0,.89-2.22,5.58,5.58,0,0,0,.24-1.41,1,1,0,0,0-.22-.79.9.9,0,0,0-.62-.19,1.6,1.6,0,0,0-1,.43,8.46,8.46,0,0,0-1.13,1.12c-.38.45-.77,1-1.17,1.54s-.77,1.14-1.12,1.7-.69,1.1-1,1.6l-.78,1.23-.81-.62c.76-1.19,1.45-2.28,2.06-3.27a26.89,26.89,0,0,1,1.79-2.55,9,9,0,0,1,1.67-1.66,2.89,2.89,0,0,1,1.73-.59,2.37,2.37,0,0,1,.94.2,2.19,2.19,0,0,1,.8.59,2.86,2.86,0,0,1,.55.95,3.88,3.88,0,0,1,.2,1.29,5.58,5.58,0,0,1-.13,1.2,18,18,0,0,1,1.82-1.58,12.6,12.6,0,0,1,1.56-1,6.08,6.08,0,0,1,1.32-.52,4.11,4.11,0,0,1,1.09-.16,3.49,3.49,0,0,1,1,.16,2.62,2.62,0,0,1,1.05.58,3.44,3.44,0,0,1,.83,1.17A4.58,4.58,0,0,1,316.22,108.89Z"/><path class="cls-1" d="M332.28,111.92a7.71,7.71,0,0,1-.54-1.62,7.85,7.85,0,0,1-.19-1.76,8.12,8.12,0,0,1,.21-2,4.63,4.63,0,0,1,.52-1.31,2.2,2.2,0,0,1,.68-.73,1.36,1.36,0,0,1,.7-.22,1.26,1.26,0,0,1,.55.12,1.2,1.2,0,0,1,.46.42,2.38,2.38,0,0,1,.32.75,4.75,4.75,0,0,1,.12,1.16,9.44,9.44,0,0,1-.63,3.3,15.92,15.92,0,0,1-1.7,3.27,19.59,19.59,0,0,1-2.44,3,22.28,22.28,0,0,1-2.85,2.47c-.27.2-.57.4-.92.62s-.72.41-1.12.6a9.93,9.93,0,0,1-1.22.47,4.59,4.59,0,0,1-1.24.18,3,3,0,0,1-2.44-1.12,4.76,4.76,0,0,1-.94-3.15,8.16,8.16,0,0,1,.26-2,14.88,14.88,0,0,1,.74-2.19,21.2,21.2,0,0,1,1.09-2.26c.42-.76.86-1.49,1.32-2.18s1-1.34,1.46-2a18.2,18.2,0,0,1,1.5-1.6l1,.65a38.75,38.75,0,0,0-2.23,3.79,33.45,33.45,0,0,0-1.55,3.47,22.11,22.11,0,0,0-.91,3,11,11,0,0,0-.3,2.33,3.22,3.22,0,0,0,.3,1.62.94.94,0,0,0,.85.48,4.24,4.24,0,0,0,1.49-.39,11.9,11.9,0,0,0,2.19-1.26,20,20,0,0,0,3-2.64A18.18,18.18,0,0,0,332.28,111.92Zm.72-1.11a12.4,12.4,0,0,0,.7-2.08,8.94,8.94,0,0,0,.25-2,2.77,2.77,0,0,0-.11-1,.8.8,0,0,0-.18-.34l-.17.14a1.74,1.74,0,0,0-.35.48,3.54,3.54,0,0,0-.33,1,6.72,6.72,0,0,0-.15,1.57,10,10,0,0,0,.08,1.18A4.59,4.59,0,0,0,333,110.81Z"/><path class="cls-1" d="M342.29,105.64c-.2.39-.47.89-.82,1.53s-.72,1.32-1.12,2.07-.81,1.54-1.23,2.36-.79,1.63-1.12,2.41a21,21,0,0,0-.82,2.19,6.4,6.4,0,0,0-.31,1.74,1.14,1.14,0,0,0,.27.88,1.1,1.1,0,0,0,.76.23,3.09,3.09,0,0,0,1.78-.6,9.49,9.49,0,0,0,1.73-1.57,19.78,19.78,0,0,0,1.68-2.22l1.65-2.51.8.62c-.43.77-.92,1.6-1.46,2.47a17.73,17.73,0,0,1-1.81,2.44,9.89,9.89,0,0,1-2.21,1.86,5,5,0,0,1-2.63.74,2.62,2.62,0,0,1-2.05-.8,3,3,0,0,1-.71-2.08,7.94,7.94,0,0,1,.69-3.11,20.51,20.51,0,0,1,1.72-3.22,32.32,32.32,0,0,1,2.26-3.07c.8-1,1.55-1.87,2.23-2.67Zm4.16-5a2.18,2.18,0,0,1-.22.93,3.57,3.57,0,0,1-.57.86,3,3,0,0,1-.77.62,1.68,1.68,0,0,1-.84.24.67.67,0,0,1-.58-.27,1.12,1.12,0,0,1-.2-.68,3.26,3.26,0,0,1,.13-.85,3.63,3.63,0,0,1,.4-.93,3.06,3.06,0,0,1,.65-.74,1.31,1.31,0,0,1,.87-.31,1.08,1.08,0,0,1,.8.35A1.13,1.13,0,0,1,346.45,100.69Z"/><path class="cls-1" d="M349.26,102.07c.15-.25.41-.69.79-1.31s.83-1.31,1.34-2.07,1.07-1.52,1.67-2.29a17.36,17.36,0,0,1,1.77-2l1,.61c-.64,1-1.29,2.17-2,3.35s-1.33,2.4-2,3.66h7.26l-.44,1.16h-7.42c-.67,1.34-1.3,2.67-1.88,4s-1.11,2.59-1.55,3.79a28.48,28.48,0,0,0-1.05,3.38,11.92,11.92,0,0,0-.38,2.72,2.78,2.78,0,0,0,.67,2.09,2.31,2.31,0,0,0,1.65.63,3.55,3.55,0,0,0,1.78-.52,9.75,9.75,0,0,0,1.79-1.33,16.55,16.55,0,0,0,1.68-1.76c.52-.63,1-1.24,1.4-1.8s.75-1.06,1-1.48l.49-.79.83.62c-.52.86-1.11,1.77-1.76,2.74a20.33,20.33,0,0,1-2.18,2.69,12.23,12.23,0,0,1-2.59,2,6,6,0,0,1-3,.81,4,4,0,0,1-1.75-.36,3.61,3.61,0,0,1-1.26-1,4.26,4.26,0,0,1-.77-1.5,6.72,6.72,0,0,1-.25-1.9,12.12,12.12,0,0,1,.21-1.89,24.38,24.38,0,0,1,.72-2.91c.34-1.12.8-2.38,1.37-3.78a47.55,47.55,0,0,1,2.17-4.5h-3.69l.44-1.16Z"/><path class="cls-1" d="M374.62,105.64c-.2.39-.47.89-.82,1.51s-.72,1.32-1.12,2.07-.81,1.53-1.22,2.35-.78,1.61-1.11,2.39a22.79,22.79,0,0,0-.82,2.21,5.93,5.93,0,0,0-.33,1.75,1.16,1.16,0,0,0,.28.92,1.19,1.19,0,0,0,.73.21,2.61,2.61,0,0,0,1.32-.38,7.25,7.25,0,0,0,1.34-1,12.93,12.93,0,0,0,1.28-1.36c.42-.5.8-1,1.17-1.52s.69-1,1-1.47l.76-1.19.8.62c-.25.47-.55,1-.89,1.54s-.72,1.1-1.13,1.66a19.76,19.76,0,0,1-1.32,1.61A11.42,11.42,0,0,1,373,119a7.3,7.3,0,0,1-1.66,1,4.6,4.6,0,0,1-1.78.36,2.35,2.35,0,0,1-2-.8,3.28,3.28,0,0,1-.62-2.08c0-.06,0-.19,0-.39a2,2,0,0,1,.05-.48,19.2,19.2,0,0,1-2.12,2.32,11.23,11.23,0,0,1-2,1.45,7,7,0,0,1-1.82.75,7.28,7.28,0,0,1-1.68.21,4.45,4.45,0,0,1-1.6-.28,4,4,0,0,1-1.31-.81,3.71,3.71,0,0,1-.89-1.32,4.59,4.59,0,0,1-.33-1.8,9,9,0,0,1,.57-2.91,12.89,12.89,0,0,1,2-3.53,16.15,16.15,0,0,1,2.55-2.74,14.75,14.75,0,0,1,2.61-1.8,11.15,11.15,0,0,1,2.44-1,8.71,8.71,0,0,1,2.07-.28,5.78,5.78,0,0,1,3.1.67,2.93,2.93,0,0,1,1.27,2.09c.29-.37.6-.74.93-1.12l1-1.13Zm-6.84,8.47c.19-.32.43-.71.71-1.2s.58-1,.89-1.49.62-1,.92-1.48.55-.88.77-1.2c0-.14,0-.35-.05-.65a2.65,2.65,0,0,0-.3-.9,2.1,2.1,0,0,0-.78-.79,2.78,2.78,0,0,0-1.5-.34,6.5,6.5,0,0,0-1.54.21,8.74,8.74,0,0,0-1.83.72,11.85,11.85,0,0,0-2,1.32,15.2,15.2,0,0,0-2,2,16.41,16.41,0,0,0-2.38,3.71,8.42,8.42,0,0,0-.83,3.36,3,3,0,0,0,.58,2,2,2,0,0,0,1.64.69,4.91,4.91,0,0,0,2.3-.55,8.66,8.66,0,0,0,2-1.41,17.47,17.47,0,0,0,1.79-1.93Z"/><path class="cls-1" d="M381.59,102.07c.15-.25.41-.69.79-1.31s.83-1.31,1.34-2.07,1.07-1.52,1.67-2.29a17.36,17.36,0,0,1,1.77-2l1,.61c-.63,1-1.29,2.17-2,3.35s-1.33,2.4-2,3.66h7.26l-.44,1.16h-7.42c-.67,1.34-1.3,2.67-1.88,4s-1.11,2.59-1.55,3.79a28.48,28.48,0,0,0-1.05,3.38,11.92,11.92,0,0,0-.38,2.72,2.78,2.78,0,0,0,.67,2.09,2.31,2.31,0,0,0,1.65.63,3.55,3.55,0,0,0,1.78-.52,9.75,9.75,0,0,0,1.79-1.33,16.55,16.55,0,0,0,1.68-1.76c.52-.63,1-1.24,1.4-1.8s.75-1.06,1-1.48l.49-.79.83.62c-.52.86-1.11,1.77-1.76,2.74a21.09,21.09,0,0,1-2.17,2.69,12.29,12.29,0,0,1-2.6,2,6,6,0,0,1-3,.81,4,4,0,0,1-1.75-.36,3.61,3.61,0,0,1-1.26-1,4.26,4.26,0,0,1-.77-1.5,6.72,6.72,0,0,1-.25-1.9,12.12,12.12,0,0,1,.21-1.89,24.38,24.38,0,0,1,.72-2.91c.34-1.12.8-2.38,1.37-3.78a45.44,45.44,0,0,1,2.18-4.5h-3.7l.44-1.16Z"/><path class="cls-1" d="M395.07,105.64c-.19.39-.46.89-.81,1.53s-.73,1.32-1.13,2.07-.81,1.54-1.22,2.36-.79,1.63-1.13,2.41a23.31,23.31,0,0,0-.81,2.19,6,6,0,0,0-.31,1.74,1.18,1.18,0,0,0,.26.88,1.11,1.11,0,0,0,.76.23,3.07,3.07,0,0,0,1.78-.6,9.49,9.49,0,0,0,1.73-1.57,19.78,19.78,0,0,0,1.68-2.22l1.65-2.51.81.62c-.44.77-.92,1.6-1.46,2.47a17.79,17.79,0,0,1-1.82,2.44,9.67,9.67,0,0,1-2.21,1.86,4.94,4.94,0,0,1-2.62.74,2.63,2.63,0,0,1-2.06-.8,3.05,3.05,0,0,1-.71-2.08,7.94,7.94,0,0,1,.69-3.11,20.58,20.58,0,0,1,1.73-3.22,32.22,32.22,0,0,1,2.25-3.07c.81-1,1.55-1.87,2.24-2.67Zm4.17-5a2.33,2.33,0,0,1-.22.93,3.57,3.57,0,0,1-.57.86,3.23,3.23,0,0,1-.77.62,1.72,1.72,0,0,1-.85.24.69.69,0,0,1-.58-.27,1.19,1.19,0,0,1-.2-.68,3.87,3.87,0,0,1,.54-1.78,3.25,3.25,0,0,1,.64-.74,1.31,1.31,0,0,1,.87-.31,1.08,1.08,0,0,1,.8.35A1.1,1.1,0,0,1,399.24,100.69Z"/><path class="cls-1" d="M410.09,114.4l.18,0h.2a5,5,0,0,0,1.13-.12,3.65,3.65,0,0,0,.95-.39,4.17,4.17,0,0,0,.84-.71,8,8,0,0,0,.78-1l.8.62a6.62,6.62,0,0,1-2.21,2.12,5.08,5.08,0,0,1-2.4.6,3.4,3.4,0,0,1-.83-.09,14.73,14.73,0,0,1-2,2.73,12.28,12.28,0,0,1-2.23,1.84,8.67,8.67,0,0,1-2.25,1,7.29,7.29,0,0,1-2.07.33,4.76,4.76,0,0,1-1.82-.35,4.08,4.08,0,0,1-1.43-1,4.68,4.68,0,0,1-.94-1.54,5.71,5.71,0,0,1-.33-2,8,8,0,0,1,.35-2.28,13.66,13.66,0,0,1,1-2.29,16,16,0,0,1,1.44-2.2,18.51,18.51,0,0,1,1.78-2,17.94,17.94,0,0,1,2-1.65,11.75,11.75,0,0,1,2.05-1.2l.71.94a16.26,16.26,0,0,0-2.4,2.13,21.18,21.18,0,0,0-2.2,2.83,18.2,18.2,0,0,0-1.63,3.2,9.06,9.06,0,0,0-.63,3.22,3.32,3.32,0,0,0,.62,2.17,2.28,2.28,0,0,0,1.89.77,4.92,4.92,0,0,0,1.94-.4,9.05,9.05,0,0,0,1.88-1.09,12.68,12.68,0,0,0,1.75-1.64,22.85,22.85,0,0,0,1.61-2,4.07,4.07,0,0,1-1.14-1,6.15,6.15,0,0,1-.82-1.45,8.48,8.48,0,0,1-.5-1.75,10.94,10.94,0,0,1-.17-1.91,6.51,6.51,0,0,1,.25-1.85,5.62,5.62,0,0,1,.67-1.53,3.46,3.46,0,0,1,1-1,2.2,2.2,0,0,1,1.27-.38,2,2,0,0,1,1.11.32,2.74,2.74,0,0,1,.83.89,4.87,4.87,0,0,1,.51,1.35,7.44,7.44,0,0,1,.18,1.67,11.34,11.34,0,0,1-.11,1.47,15.49,15.49,0,0,1-.84,3.22A7.51,7.51,0,0,1,410.09,114.4Zm-3-5.55a8.85,8.85,0,0,0,.11,1.4,7.18,7.18,0,0,0,.36,1.47,6.48,6.48,0,0,0,.62,1.33,2.91,2.91,0,0,0,.94,1,13.24,13.24,0,0,0,.68-1.6c.18-.54.34-1.06.46-1.57a10.21,10.21,0,0,0,.27-1.41,10.44,10.44,0,0,0,.08-1.15,6.59,6.59,0,0,0-.11-1.22,4.85,4.85,0,0,0-.3-1,2,2,0,0,0-.47-.65.91.91,0,0,0-.61-.23,1.3,1.3,0,0,0-.83.3,2.36,2.36,0,0,0-.64.8,4.51,4.51,0,0,0-.42,1.16A6.77,6.77,0,0,0,407.06,108.85Z"/><path class="cls-1" d="M432.77,108.89a6.14,6.14,0,0,1-.33,2,16.07,16.07,0,0,1-.85,2c-.34.66-.71,1.31-1.09,1.94s-.75,1.26-1.09,1.85a15,15,0,0,0-.85,1.71,4,4,0,0,0-.33,1.48.85.85,0,0,0,.22.69.76.76,0,0,0,.49.18,3.15,3.15,0,0,0,1.89-.84,15.49,15.49,0,0,0,2.13-2.1c.72-.85,1.44-1.77,2.15-2.76s1.36-1.94,1.94-2.83l.8.62c-.12.18-.33.53-.64,1.06s-.7,1.13-1.16,1.8-1,1.38-1.55,2.12a18.82,18.82,0,0,1-1.84,2,11.13,11.13,0,0,1-2,1.52,4.1,4.1,0,0,1-2.08.6,2.75,2.75,0,0,1-1.09-.2,2.45,2.45,0,0,1-.84-.55,2.63,2.63,0,0,1-.54-.84,2.5,2.5,0,0,1-.2-1,5.23,5.23,0,0,1,.39-1.88,16.82,16.82,0,0,1,1-2.09c.38-.71.8-1.43,1.27-2.15s.88-1.41,1.27-2.06a19.3,19.3,0,0,0,1-1.82,3.5,3.5,0,0,0,.4-1.43,1.85,1.85,0,0,0-.37-1.16,1.26,1.26,0,0,0-1-.47,3.28,3.28,0,0,0-1.65.59,12.87,12.87,0,0,0-2.09,1.73c-.77.76-1.62,1.69-2.53,2.79s-1.91,2.37-3,3.78c-.6.82-1.2,1.61-1.78,2.36l-.76,1-.75,1-.72,1c-.22.3-.42.57-.6.79l-2-.8,2.61-3.59c.37-.51.75-1.05,1.13-1.63s.77-1.17,1.15-1.79.74-1.24,1.08-1.86.66-1.23,1-1.83a13.55,13.55,0,0,0,.89-2.22,5.24,5.24,0,0,0,.25-1.41,1,1,0,0,0-.23-.79.89.89,0,0,0-.62-.19,1.65,1.65,0,0,0-1,.43,8.44,8.44,0,0,0-1.12,1.12,15.84,15.84,0,0,0-1.17,1.54c-.4.57-.77,1.14-1.13,1.7s-.69,1.1-1,1.6-.57.92-.78,1.23l-.8-.62,2.06-3.27a25.22,25.22,0,0,1,1.78-2.55,9,9,0,0,1,1.67-1.66,2.91,2.91,0,0,1,1.73-.59,2.45,2.45,0,0,1,.95.2,2.28,2.28,0,0,1,.8.59,2.84,2.84,0,0,1,.54.95,3.64,3.64,0,0,1,.2,1.29,5.58,5.58,0,0,1-.13,1.2,17,17,0,0,1,1.83-1.58,11.28,11.28,0,0,1,1.56-1,5.83,5.83,0,0,1,1.31-.52,4.16,4.16,0,0,1,1.09-.16,3.49,3.49,0,0,1,1,.16,2.62,2.62,0,0,1,1,.58,3.33,3.33,0,0,1,.84,1.17A4.59,4.59,0,0,1,432.77,108.89Z"/><path class="cls-1" d="M343,70.29s10.7-.13,15.23-.16q27.09-.22,54.16-.43,39.29-.27,78.55-.5c5.08,0,15.23,0,15.23,0v-.28l-163.1-1.34A6.39,6.39,0,0,1,343,70.29Z"/><path class="cls-1" d="M264.71,51a14.57,14.57,0,0,1,.54-1.92,57.68,57.68,0,0,1,5.4-10c2.17-3.06,5.16-6.45,9.08-7,1.7-.24,3.68.15,4.38,1.9,1.16,2.87-.71,5-3,6.45s-4.6,2.29-6.89,3.44a28.16,28.16,0,0,0-6.42,4.38A24.46,24.46,0,0,1,264.71,51Z"/><path class="cls-1" d="M175.36,70.29s-10.7-.13-15.23-.16Q133,69.91,106,69.7q-39.28-.27-78.55-.5c-5.08,0-15.23,0-15.23,0v-.28l163.1-1.34A6.39,6.39,0,0,0,175.36,70.29Z"/><path class="cls-1" d="M253.69,51a14.57,14.57,0,0,0-.54-1.92,57.68,57.68,0,0,0-5.4-10c-2.17-3.06-5.16-6.45-9.08-7-1.7-.24-3.68.15-4.38,1.9-1.16,2.87.71,5,3,6.45s4.6,2.29,6.89,3.44a28.16,28.16,0,0,1,6.42,4.38A24.46,24.46,0,0,0,253.69,51Z"/><path class="cls-1" d="M259.22,18.82a7.13,7.13,0,0,0-6.58,4.7c-1.22,3.7.15,7.75,1.52,11.2,2.58,6.49,4.78,13.25,5.08,20.28a31.45,31.45,0,0,1,.79-5.67c.28-1.81.61-3.61,1.05-5.39.93-3.8,2.45-7.42,3.68-11.12s2.73-8.14.23-11.59C263.66,19.4,261.38,18.82,259.22,18.82Z"/><path class="cls-1" d="M342.07,67.5a9.41,9.41,0,0,0-.85-3.38,8.75,8.75,0,0,0-3.38-3.65,12.93,12.93,0,0,0-5.94-1.94,8.67,8.67,0,0,0-5.36,1.35,6.38,6.38,0,0,0-1.72,8.61,4.67,4.67,0,0,0,6.7.86,2.62,2.62,0,0,0,1.05-2.63A5,5,0,0,0,331.8,65c-.28-.42-.75-.73-1-1.21s.21-.66.55-.78a5.13,5.13,0,0,1,5,.79,6.64,6.64,0,0,1,.55.51,7.34,7.34,0,0,1,.67,9.25A11.44,11.44,0,0,1,327.73,78,16.22,16.22,0,0,1,322,76.45a20.93,20.93,0,0,1-4.85-3.39c-3.27-2.83-6.4-5.81-9.59-8.72l-4.28-3.86c-.53-.48-2.88-1.93-2.6-2.78.14-.42,1.09-.22,1.5-.22,1.14,0,2.28,0,3.42,0,5.61-.22,9.06-2.81,10.75-8C319,41.05,314,34,305.6,34.41a9,9,0,0,0-6.81,3.46,8.47,8.47,0,0,0-1.61,5.92,4.52,4.52,0,0,0,2.89,3.78,4.46,4.46,0,0,0,4.33-.89,3,3,0,0,0,1-3.14A3.89,3.89,0,0,0,303,41.6c-.32-.13-1.14-.28-1.29-.64s.26-1,.43-1.28a4.47,4.47,0,0,1,3.73-2,7.72,7.72,0,0,1,8,6.12c.81,3.9-1.36,8.66-4.61,10a15.63,15.63,0,0,1-9.76.5c-5.1-1.19-10.09-3.13-15.25-3.72-12-1.37-18.86,2.71-23.69,11.78a11.42,11.42,0,0,0-1.19,2.4,13.67,13.67,0,0,0-.22,2.16,15.67,15.67,0,0,0-.24-2.16,11.42,11.42,0,0,0-1.19-2.4c-4.83-9.07-11.71-13.15-23.69-11.78-5.16.59-10.15,2.53-15.25,3.72a15.63,15.63,0,0,1-9.76-.5c-3.25-1.37-5.42-6.13-4.61-10a7.72,7.72,0,0,1,8-6.12,4.46,4.46,0,0,1,3.73,2c.17.29.58.92.43,1.28s-1,.51-1.29.64A3.89,3.89,0,0,0,213,43.54a3,3,0,0,0,1,3.14,4.46,4.46,0,0,0,4.33.89,4.52,4.52,0,0,0,2.89-3.78,8.47,8.47,0,0,0-1.61-5.92,9,9,0,0,0-6.81-3.46c-8.39-.45-13.44,6.64-10.71,15.07,1.69,5.17,5.14,7.76,10.75,8,1.14,0,2.28,0,3.42,0,.41,0,1.36-.2,1.5.22.28.85-2.07,2.3-2.6,2.78l-4.28,3.86c-3.19,2.91-6.32,5.89-9.59,8.72a20.93,20.93,0,0,1-4.85,3.39A16.22,16.22,0,0,1,190.67,78a11.44,11.44,0,0,1-9.91-4.44,7.34,7.34,0,0,1,.67-9.25,6.64,6.64,0,0,1,.55-.51,5.13,5.13,0,0,1,5-.79c.34.12.73.37.55.78s-.68.79-1,1.21a5,5,0,0,0-.77,1.69,2.62,2.62,0,0,0,1,2.63,4.67,4.67,0,0,0,6.7-.86,6.38,6.38,0,0,0-1.72-8.61,8.67,8.67,0,0,0-5.36-1.35,12.93,12.93,0,0,0-5.94,1.94,8.75,8.75,0,0,0-3.38,3.65,9.41,9.41,0,0,0-.85,3.38c-.26,3.88.9,8.12,4.13,10.52a17.41,17.41,0,0,0,8.83,3.26,19.37,19.37,0,0,0,3,0c8.76-.65,15.37-8,21.14-13.87.76-.78,1.51-1.55,2.28-2.32,1-1,2.1-1.89,3.09-2.79a9.71,9.71,0,0,0-.07,2.44c0,.89-.08,1.77-.1,2.65a20.52,20.52,0,0,0,.44,5.24,12.07,12.07,0,0,0,4.37,6.69,11.39,11.39,0,0,0,6,2.35,11,11,0,0,0,7.16-1.9,10,10,0,0,0,4.36-6.56c.6-4.26-1.67-8.8-6-9.9-2.34-.59-5.81,0-7.38,2a4,4,0,0,0-.26,4.22,3.83,3.83,0,0,0,4.5,1.85,2.89,2.89,0,0,0,2-2.33c.06-.57,0-1.29.48-1.56a1.07,1.07,0,0,1,.73-.06,3.8,3.8,0,0,1,2.6,2.13,5.35,5.35,0,0,1,.31,3.42,7.3,7.3,0,0,1-3,4.41,8.24,8.24,0,0,1-5.17,1.38A8.51,8.51,0,0,1,225,77a10.15,10.15,0,0,1-3.16-4.89,13.06,13.06,0,0,1,3.42-13.44,19.6,19.6,0,0,1,19.31-4.4c6,1.7,10.11,6.68,11.77,12.55a12.83,12.83,0,0,1,.35,6.64,8.69,8.69,0,0,1-2.8,4.43,5.59,5.59,0,0,1-4.16,1.46,4.07,4.07,0,0,1-3.48-4.8,1.48,1.48,0,0,1,.37-.8,1.52,1.52,0,0,1,1.74,0,5.94,5.94,0,0,0,1.66.85,1.93,1.93,0,0,0,2-1.28,2.68,2.68,0,0,0-.45-2.45,3.73,3.73,0,0,0-3-1.41,4.88,4.88,0,0,0-3.11,1.21,6.18,6.18,0,0,0-1.2,7.71,7,7,0,0,0,7.64,3.12,10.37,10.37,0,0,0,4.15-2.21,14.9,14.9,0,0,0,1.7-1.67c.52-.58.93-1.28,1.46-1.84-.14.15,1,1.45,1.18,1.59A16.52,16.52,0,0,0,262,78.87a11.63,11.63,0,0,0,4.5,2.59,7,7,0,0,0,7.64-3.12,6.18,6.18,0,0,0-1.2-7.71,4.88,4.88,0,0,0-3.11-1.21,3.7,3.7,0,0,0-3,1.41,2.65,2.65,0,0,0-.46,2.45,1.93,1.93,0,0,0,2,1.28,5.94,5.94,0,0,0,1.66-.85,1.52,1.52,0,0,1,1.74,0,1.48,1.48,0,0,1,.37.8,4.07,4.07,0,0,1-3.48,4.8,5.59,5.59,0,0,1-4.16-1.46,8.69,8.69,0,0,1-2.8-4.43,12.83,12.83,0,0,1,.35-6.64c1.66-5.87,5.77-10.85,11.77-12.55a19.6,19.6,0,0,1,19.31,4.4,13.06,13.06,0,0,1,3.42,13.44A10.15,10.15,0,0,1,293.43,77a8.51,8.51,0,0,1-4.74,1.81,8.24,8.24,0,0,1-5.17-1.38,7.3,7.3,0,0,1-3-4.41,5.35,5.35,0,0,1,.31-3.42,3.8,3.8,0,0,1,2.6-2.13,1.07,1.07,0,0,1,.73.06c.5.27.42,1,.48,1.56a2.89,2.89,0,0,0,2,2.33,3.83,3.83,0,0,0,4.5-1.85,4,4,0,0,0-.26-4.22c-1.57-2-5-2.56-7.37-2-4.35,1.1-6.62,5.64-6,9.9a10,10,0,0,0,4.36,6.56,11,11,0,0,0,7.16,1.9,11.39,11.39,0,0,0,6-2.35,12.07,12.07,0,0,0,4.37-6.69,20.52,20.52,0,0,0,.44-5.24c0-.88-.07-1.76-.1-2.65a9.71,9.71,0,0,0-.07-2.44c1,.9,2.1,1.78,3.09,2.79.77.77,1.52,1.54,2.28,2.32,5.77,5.89,12.38,13.22,21.14,13.87a19.37,19.37,0,0,0,2.95,0A17.41,17.41,0,0,0,337.94,78C341.17,75.62,342.33,71.38,342.07,67.5Z"/><path class="cls-1" d="M417.55,166.77c-21.7,0-44.37-6.67-65.79-19.41-24.73-14.7-48.59-8.75-64.26-1.18a108.2,108.2,0,0,0-28.37,20.17l-.33-.31a108.8,108.8,0,0,1,28.51-20.27c15.76-7.62,39.78-13.6,64.68,1.2,43.84,26.06,92.12,25.89,123-.43l.29.35C461.13,159,441.91,166,421.16,166.71,420,166.75,418.76,166.77,417.55,166.77Z"/><path class="cls-1" d="M465.44,153.86s11.52-12.15,10.45-8.18C474.91,149.28,465.44,153.86,465.44,153.86Z"/><path class="cls-1" d="M464.42,154.6l.86-.9c2.17-2.29,9.34-9.71,10.65-9,.39.22.23.82.18,1-1,3.67-10.18,8.14-10.57,8.33Zm11.19-9.51c-.79,0-4.71,3.44-9.07,7.95,2.56-1.36,8.4-4.71,9.13-7.42.11-.41,0-.5,0-.51Z"/><path class="cls-1" d="M306.17,166.55a38.4,38.4,0,0,1-19.5-5.75c-7.32-4.35-14.39-2.59-19-.35a31.94,31.94,0,0,0-8.41,6l-.09-.09a32,32,0,0,1,8.44-6c4.67-2.26,11.79-4,19.16.36,13,7.72,27.3,7.67,36.44-.13l.09.1a26,26,0,0,1-16,5.87C306.88,166.55,306.52,166.55,306.17,166.55Z"/><path class="cls-1" d="M320.35,162.73s3.42-3.6,3.1-2.43S320.35,162.73,320.35,162.73Z"/><path class="cls-1" d="M320.05,163l.26-.27c.64-.68,2.77-2.87,3.15-2.66.12.07.07.24.05.3-.29,1.09-3,2.41-3.13,2.47Zm3.32-2.82a11.84,11.84,0,0,0-2.69,2.36c.76-.41,2.49-1.4,2.7-2.2,0-.13,0-.15,0-.15Z"/><path class="cls-1" d="M261.88,163.43l-.08-.07a24.24,24.24,0,0,1,5.95-5c3.35-2,8.56-3.71,14.34-.87,10.16,5,20.85,4.1,27.22-2.27l.07.07a19.59,19.59,0,0,1-11.63,5.35A28.62,28.62,0,0,1,282,157.59c-5.73-2.82-10.91-1.08-14.24.87A23.66,23.66,0,0,0,261.88,163.43Z"/><path class="cls-1" d="M307.32,157s2.34-2.89,2.17-2S307.32,157,307.32,157Z"/><path class="cls-1" d="M307.11,157.2l.17-.21c.43-.53,1.8-2.19,2.17-2.19h0c.09,0,.07.18.06.22-.15.83-2.11,2-2.19,2Zm2.32-2.3a8.73,8.73,0,0,0-1.88,1.92c.54-.35,1.78-1.19,1.89-1.81,0-.09,0-.11,0-.11Z"/><path class="cls-1" d="M283.44,149.43c.45,0,34.9-14.05,46.23-6.8s23.56,15.87,48.94,19.94c0,0-20.64-.1-50.76-17.67-10.87-6.34-31.72.45-44.41,4.53"/><path class="cls-1" d="M378.61,162.62a67,67,0,0,1-14.1-2.25c-8.14-2-21.12-6.35-36.68-15.43-4.74-2.76-11.69-3.31-21.26-1.67-8.07,1.37-16.55,4.1-22.75,6.09h0a1.92,1.92,0,0,1-.35.11h-.32l.64-.2.92-.34a177.09,177.09,0,0,1,21.08-6.48c11.6-2.66,19.65-2.61,23.93.13l1.93,1.24c10.81,7,23.06,14.85,47,18.69Zm-62.4-20.37c4.83,0,8.69.87,11.67,2.61,15.55,9.07,28.51,13.39,36.65,15.42a74.23,74.23,0,0,0,13.26,2.21c-23.42-3.9-35.53-11.69-46.22-18.58l-1.93-1.23c-4.27-2.73-12.29-2.77-23.85-.12a170.88,170.88,0,0,0-19.66,6,156,156,0,0,1,20.42-5.35A58,58,0,0,1,316.21,142.25Z"/><path class="cls-1" d="M383.14,154s40.79,24,78.4-4.53C461.54,149.43,431.18,173.9,383.14,154Z"/><path class="cls-1" d="M420.43,163.46a74.74,74.74,0,0,1-12.2-1A80.18,80.18,0,0,1,383.12,154l0-.09c24.8,10.29,44.78,8.51,57.18,5.21A64.65,64.65,0,0,0,461,149.79l.52-.4.06.08s-.18.15-.51.39a67.33,67.33,0,0,1-27.63,12.37A68.28,68.28,0,0,1,420.43,163.46Zm-36.5-9.12a82.08,82.08,0,0,0,24.32,8c12.87,2.1,31.75,1.81,50.22-10.78a68.22,68.22,0,0,1-18.1,7.64,79.4,79.4,0,0,1-24.72,2.5A98.1,98.1,0,0,1,383.93,154.34Z"/><path class="cls-1" d="M100.85,166.78c-1.21,0-2.41,0-3.61-.07-20.75-.71-40-7.75-54.13-19.82l.3-.35c30.88,26.33,79.16,26.49,123,.44,24.9-14.81,48.92-8.83,64.68-1.2a108.54,108.54,0,0,1,28.51,20.27l-.33.31a108,108,0,0,0-28.39-20.18c-15.66-7.57-39.51-13.51-64.24,1.18C145.22,160.1,122.55,166.77,100.85,166.78Z"/><path class="cls-1" d="M53,153.86s-11.52-12.14-10.45-8.18C43.49,149.29,53,153.86,53,153.86Z"/><path class="cls-1" d="M54,154.61l-1.12-.54c-.39-.19-9.58-4.66-10.57-8.33,0-.2-.21-.8.18-1,1.3-.72,8.48,6.7,10.65,9Zm-11.19-9.52a.17.17,0,0,0-.1,0s-.07.09,0,.5c.73,2.71,6.58,6.07,9.13,7.43C47.45,148.48,43.59,145.09,42.79,145.09Z"/><path class="cls-1" d="M212.23,166.56l-1.07,0a26.09,26.09,0,0,1-16-5.87l.09-.11c9.14,7.8,23.45,7.85,36.44.13,7.37-4.38,14.49-2.61,19.16-.35a32.11,32.11,0,0,1,8.44,6l-.1.09a31.93,31.93,0,0,0-8.4-6c-4.64-2.25-11.71-4-19,.35A38.5,38.5,0,0,1,212.23,166.56Z"/><path class="cls-1" d="M198.05,162.73s-3.42-3.6-3.1-2.42S198.05,162.73,198.05,162.73Z"/><path class="cls-1" d="M198.35,163l-.33-.16c-.12,0-2.84-1.38-3.13-2.47,0,0-.07-.23.05-.3.38-.21,2.51,2,3.15,2.67ZM195,160.13h0s0,0,0,.15c.21.8,1.94,1.8,2.7,2.2A12.14,12.14,0,0,0,195,160.13Z"/><path class="cls-1" d="M256.52,163.43a23.89,23.89,0,0,0-5.92-5c-3.34-2-8.51-3.68-14.24-.87a28.53,28.53,0,0,1-15.71,3.06A19.52,19.52,0,0,1,209,155.31l.07-.07c6.37,6.37,17.06,7.26,27.22,2.26,5.77-2.83,11-1.09,14.34.88a23.76,23.76,0,0,1,6,5Z"/><path class="cls-1" d="M211.08,157s-2.34-2.89-2.17-2S211.08,157,211.08,157Z"/><path class="cls-1" d="M211.29,157.21l-.24-.14c-.08,0-2-1.2-2.19-2,0,0,0-.18,0-.22h0c.37,0,1.74,1.66,2.16,2.18ZM209,154.9h0s0,0,0,.11c.11.61,1.35,1.46,1.89,1.8A8.73,8.73,0,0,0,209,154.9Z"/><path class="cls-1" d="M235,149.44c-.45,0-34.9-14.05-46.23-6.8s-23.56,15.86-48.94,19.94c0,0,20.64-.11,50.76-17.68,10.87-6.34,31.72.46,44.41,4.54"/><path class="cls-1" d="M139.79,162.63v-.1c23.94-3.85,36.19-11.74,47-18.7l1.93-1.23c4.29-2.75,12.34-2.79,23.93-.14a180.36,180.36,0,0,1,21.08,6.48l.92.34.64.21H235a1.92,1.92,0,0,1-.35-.11h0c-6.2-2-14.68-4.72-22.75-6.1-9.57-1.63-16.52-1.08-21.26,1.68C175,154,162,158.35,153.89,160.38A67,67,0,0,1,139.79,162.63Zm58.34-22c-4.07,0-7.2.7-9.37,2.08l-1.92,1.24c-10.7,6.88-22.81,14.68-46.23,18.57a74.23,74.23,0,0,0,13.26-2.21c8.13-2,21.1-6.35,36.65-15.42,4.76-2.77,11.73-3.33,21.33-1.69a156,156,0,0,1,20.42,5.35,173.29,173.29,0,0,0-19.65-6A67.19,67.19,0,0,0,198.13,140.6Z"/><path class="cls-1" d="M135.26,154s-40.79,24-78.4-4.53C56.86,149.44,87.22,173.91,135.26,154Z"/><path class="cls-1" d="M98,163.47a68.28,68.28,0,0,1-13-1.23,67.46,67.46,0,0,1-27.63-12.37l-.51-.4.06-.07.52.39a64.41,64.41,0,0,0,20.65,9.34c12.4,3.31,32.38,5.09,57.18-5.21l0,.09a80,80,0,0,1-25.11,8.45A75.87,75.87,0,0,1,98,163.47Zm-38-11.89c18.47,12.59,37.35,12.89,50.22,10.78a82.29,82.29,0,0,0,24.32-8,98.39,98.39,0,0,1-31.73,7.37A79.67,79.67,0,0,1,78,159.23,68.17,68.17,0,0,1,59.93,151.58Z"/></svg>