<?xml version="1.0" standalone="no"?>
<!DOCTYPE svg PUBLIC "-//W3C//DTD SVG 20010904//EN"
 "http://www.w3.org/TR/2001/REC-SVG-20010904/DTD/svg10.dtd">
<svg version="1.0" xmlns="http://www.w3.org/2000/svg"
 width="1280.000000pt" height="904.000000pt" viewBox="0 0 1280.000000 904.000000"
 preserveAspectRatio="xMidYMid meet">
<metadata>
Created by potrace 1.15, written by Peter Selinger 2001-2017
</metadata>
<g transform="translate(0.000000,904.000000) scale(0.100000,-0.100000)"
fill="#000000" stroke="none">
<path d="M2190 8627 c-8 -7 -23 -22 -34 -34 -18 -22 -18 -23 17 -64 74 -86 97
-170 97 -358 0 -119 -2 -134 -35 -231 -19 -58 -33 -110 -30 -117 4 -12 -27
-30 -83 -47 -50 -16 -37 138 18 227 54 86 35 157 -42 157 -29 0 -42 -7 -67
-35 -49 -56 -71 -108 -71 -167 l0 -53 -18 27 c-54 82 -239 158 -387 158 -73 0
-78 -1 -106 -31 -33 -36 -31 -42 20 -68 33 -17 42 -31 80 -120 24 -55 58 -126
77 -157 19 -31 34 -58 34 -60 0 -1 -12 -4 -26 -6 -17 -2 -39 -18 -57 -40 l-30
-38 21 -23 22 -24 -35 -44 c-27 -34 -35 -53 -35 -84 0 -23 5 -46 12 -53 19
-19 87 -14 124 8 l33 21 12 -43 c16 -61 17 -123 2 -197 -7 -35 -10 -67 -7 -70
4 -3 9 0 11 6 3 9 10 10 24 3 15 -8 19 -22 19 -61 0 -61 42 -154 66 -145 9 3
22 6 29 6 7 0 32 32 55 72 46 76 150 191 157 172 2 -7 -19 -48 -47 -91 -27
-44 -50 -90 -50 -102 0 -21 3 -22 43 -16 106 17 190 99 242 238 22 60 25 83
25 198 0 98 -3 129 -13 129 -7 0 -37 -25 -67 -56 -63 -64 -108 -96 -165 -114
-64 -20 -116 -49 -167 -92 l-48 -39 0 162 0 162 117 -5 c64 -3 130 -2 147 3
16 5 34 5 40 0 6 -5 25 -6 41 -4 26 4 35 16 75 96 l45 92 47 0 c35 0 52 6 71
24 14 12 30 20 35 17 6 -3 23 0 39 8 62 32 106 38 144 22 48 -20 105 -6 121
30 10 21 16 24 42 18 103 -22 185 -120 219 -263 11 -46 13 -50 37 -45 14 3 35
16 46 29 l22 23 43 -44 c40 -41 47 -45 79 -39 59 11 70 29 70 109 0 120 18 61
24 -78 l6 -129 -94 -96 c-51 -53 -96 -103 -98 -111 -7 -23 -48 49 -48 84 0 42
42 92 84 100 49 9 64 31 40 57 -43 47 -167 -8 -225 -99 -75 -119 -6 -240 149
-259 46 -5 50 -7 35 -19 -11 -8 -45 -13 -81 -14 -57 0 -71 4 -142 46 l-79 45
29 53 c26 46 30 62 30 133 0 76 -1 82 -36 126 -44 56 -117 107 -154 107 -17 0
-33 -10 -46 -27 -18 -24 -22 -50 -27 -164 l-7 -136 36 -48 c36 -46 38 -47 80
-42 54 6 60 0 32 -30 l-21 -23 22 -24 c13 -14 55 -41 93 -62 69 -35 73 -36
171 -35 96 2 105 4 164 37 34 19 87 57 117 85 31 28 56 45 56 37 0 -19 172
-186 177 -172 2 7 12 10 22 7 25 -6 40 17 53 84 11 58 4 85 -39 164 -2 4 20 9
49 13 75 10 134 39 158 78 18 28 21 44 16 101 -3 37 -8 72 -11 77 -12 20 -160
81 -182 75 -30 -7 -75 -68 -71 -97 3 -20 11 -24 56 -29 63 -8 82 -22 82 -60 0
-37 -30 -53 -87 -46 -78 9 -141 91 -179 232 -20 75 -20 75 34 58 62 -19 180
-11 257 18 71 26 137 89 171 162 19 41 24 69 24 129 0 108 -34 181 -126 269
-82 78 -137 109 -196 109 -56 0 -159 -25 -207 -50 -83 -42 -152 -160 -116
-200 15 -17 12 -19 -55 -35 -80 -19 -85 -19 -230 24 -94 28 -118 31 -238 31
-131 0 -134 -1 -209 -35 -87 -40 -92 -41 -70 -17 27 30 97 156 97 175 0 70 75
118 196 125 102 5 133 -5 229 -73 41 -30 75 -50 75 -44 0 5 11 7 25 3 82 -21
-8 170 -112 236 -97 62 -201 51 -375 -38 -5 -2 -8 17 -8 43 0 25 -6 58 -14 73
-34 64 -167 162 -221 162 -21 0 -39 -8 -53 -25 l-21 -24 49 -52 c59 -61 95
-131 111 -212 14 -69 5 -96 -60 -171 l-41 -47 0 123 c0 207 -26 307 -98 381
-39 40 -49 43 -72 24z m1435 -491 c63 -29 98 -69 144 -166 31 -65 36 -84 35
-145 0 -40 -8 -86 -17 -107 -19 -45 -69 -78 -118 -78 -32 0 -36 3 -33 23 7 41
-14 52 -129 65 -142 15 -164 28 -59 34 82 5 137 27 129 51 -4 15 -125 100
-192 135 -43 22 -47 27 -27 30 13 2 25 9 26 15 2 7 9 30 15 53 6 22 27 57 46
77 31 32 42 37 83 37 28 0 67 -10 97 -24z m-1700 -362 c17 1 36 5 43 10 7 4
15 6 16 5 8 -10 37 -122 32 -126 -14 -14 -206 134 -206 159 0 5 19 -4 43 -20
27 -19 54 -29 72 -28z m285 -49 c0 -11 -45 -95 -51 -95 -4 0 -16 16 -28 35
l-21 36 23 8 c12 4 29 11 37 14 19 7 40 8 40 2z m-155 -121 c14 -21 22 -25 46
-20 36 7 42 -4 21 -36 -15 -23 -19 -25 -36 -12 -11 7 -46 19 -79 25 l-60 12
37 19 c20 10 36 23 36 28 0 18 18 10 35 -16z"/>
<path d="M10526 8590 c-26 -28 -56 -70 -66 -93 -27 -60 -42 -171 -38 -277 2
-49 0 -89 -3 -88 -4 2 -30 30 -58 64 l-50 61 10 64 c14 86 48 158 104 218 l46
50 -20 20 c-27 27 -38 26 -97 -5 -88 -46 -154 -122 -199 -231 -1 -1 -28 8 -60
22 -73 29 -167 41 -221 26 -59 -16 -120 -66 -175 -144 -59 -84 -67 -134 -22
-134 17 0 44 14 75 40 73 64 124 87 188 87 50 0 183 -28 208 -44 6 -3 18 -28
26 -54 9 -26 32 -76 51 -111 19 -36 34 -66 32 -67 -2 -2 -21 3 -42 11 -26 9
-84 14 -166 15 -115 0 -136 -3 -245 -35 -127 -38 -188 -43 -218 -20 -11 9 -41
15 -68 15 -40 0 -59 -7 -106 -39 -68 -46 -155 -91 -177 -91 -8 0 -15 -7 -15
-15 0 -8 -4 -15 -10 -15 -16 0 -11 -26 8 -43 15 -13 39 -17 113 -17 l94 0 -32
-20 c-24 -14 -54 -20 -115 -22 l-82 -3 -31 -42 c-16 -23 -35 -42 -42 -42 -24
-2 -98 66 -122 112 -63 124 4 332 129 395 103 52 205 14 229 -85 16 -62 34
-81 69 -75 30 5 82 49 82 69 0 20 -35 86 -66 122 -58 69 -159 90 -289 61 -110
-25 -211 -109 -270 -226 -27 -54 -30 -68 -30 -160 0 -100 0 -101 -21 -87 -33
21 -180 72 -270 94 -117 28 -320 57 -336 49 -7 -4 -161 5 -343 21 -405 34
-557 36 -1070 8 l-400 -22 -443 23 c-585 31 -922 21 -1477 -41 -270 -30 -457
-87 -545 -166 -49 -44 -50 -46 -50 -101 1 -48 5 -62 28 -87 36 -40 67 -39 117
2 55 46 135 86 250 126 193 67 497 127 639 127 46 0 104 6 131 14 35 11 130
16 369 20 222 3 304 2 266 -5 -30 -5 -111 -19 -180 -30 -173 -30 -388 -83
-474 -119 -72 -30 -122 -72 -111 -90 8 -13 68 -13 80 -1 19 18 203 70 350 100
186 37 498 82 802 116 l233 25 222 -25 c476 -55 812 -117 1029 -189 128 -42
180 -46 200 -15 18 30 -14 48 -193 107 -169 56 -259 80 -428 116 l-65 14 65 1
c204 3 685 -41 916 -83 289 -53 439 -107 566 -205 56 -42 67 -46 96 -40 38 8
38 8 80 67 21 30 29 51 26 69 l-5 25 32 -31 c60 -61 103 -76 209 -75 69 0 111
6 153 21 l58 20 -6 -31 c-31 -157 -69 -245 -119 -275 -57 -35 -131 -23 -157
26 -19 36 -2 56 67 73 51 13 59 18 61 40 2 14 -7 37 -21 54 l-24 28 -53 -13
c-67 -17 -104 -42 -146 -97 -57 -75 -37 -144 62 -210 43 -29 56 -33 95 -29 25
2 53 8 64 12 14 6 11 -2 -13 -35 -48 -67 -56 -113 -36 -216 8 -40 55 -18 154
74 l93 87 54 -53 c30 -29 75 -66 101 -82 44 -28 52 -30 152 -30 122 0 166 16
259 89 41 33 52 47 47 62 -5 14 -2 19 14 19 28 0 78 45 102 91 18 35 19 52 13
162 -7 132 -19 167 -57 167 -41 0 -130 -74 -178 -149 -25 -39 -29 -55 -29
-116 0 -62 4 -77 30 -118 l29 -47 -72 -40 c-62 -34 -80 -40 -132 -40 -33 1
-71 7 -85 15 -27 15 -24 17 35 30 104 22 155 78 155 169 0 64 -15 99 -57 137
-77 70 -136 79 -177 27 l-25 -33 36 -12 c48 -17 63 -31 84 -78 37 -81 20 -123
-56 -139 l-30 -6 28 21 c44 34 36 56 -63 154 l-90 90 0 127 c0 74 4 129 10
133 6 4 10 -23 10 -74 0 -88 15 -117 54 -107 12 3 26 6 33 6 6 0 32 20 57 45
l46 45 17 -35 c17 -35 24 -37 79 -20 6 2 14 29 18 60 12 105 83 202 180 246
56 26 63 24 70 -16 4 -19 12 -38 19 -42 14 -9 69 -5 80 6 4 4 31 4 60 -1 28
-5 63 -8 76 -8 13 0 32 -7 42 -16 10 -9 22 -13 27 -10 19 11 43 -5 37 -25 -5
-15 -1 -19 20 -19 14 0 34 4 44 9 25 14 36 3 96 -90 32 -48 55 -76 55 -65 0
18 1 18 18 3 26 -24 30 -22 34 21 2 30 7 38 26 40 29 4 67 60 94 142 12 36 23
59 25 53 9 -25 61 -12 129 31 38 25 70 43 72 41 8 -8 -40 -74 -75 -106 -20
-17 -62 -48 -92 -67 -79 -50 -86 -62 -56 -89 31 -28 31 -29 -4 -36 -27 -6 -81
-52 -81 -69 0 -3 51 -4 114 -1 62 3 125 3 140 -1 l27 -7 -1 -107 c-1 -59 0
-114 3 -122 3 -8 7 -28 10 -43 4 -28 4 -28 -17 -9 -11 10 -73 44 -136 75 -141
70 -207 117 -226 163 -11 26 -20 34 -39 34 -15 0 -28 -7 -32 -17 -4 -10 -11
-21 -17 -25 -7 -5 -10 -54 -9 -139 3 -131 3 -132 40 -198 44 -79 116 -159 160
-178 21 -8 48 -11 73 -7 36 6 40 9 40 36 0 18 -13 49 -33 77 -51 70 -54 80
-11 39 21 -21 62 -73 89 -117 45 -72 53 -79 75 -74 14 3 29 8 34 11 16 9 56
107 56 139 0 45 9 63 31 63 30 0 31 19 9 115 -17 73 -19 94 -9 124 16 50 23
55 44 31 14 -15 31 -20 70 -20 67 0 85 18 85 85 0 41 -5 54 -31 82 -31 31 -31
33 -15 57 9 14 16 31 16 39 0 24 -44 56 -83 59 l-38 3 70 142 c39 78 91 167
116 197 25 31 45 60 45 66 0 19 -40 30 -112 30 -165 0 -303 -70 -386 -195
l-29 -43 0 91 c0 63 -5 106 -17 137 -25 66 -42 80 -96 80 -42 0 -50 -4 -74
-34 -34 -45 -33 -71 5 -131 17 -28 38 -67 45 -89 16 -43 19 -126 5 -126 -4 0
-31 9 -59 21 -38 16 -49 25 -45 39 3 9 -11 71 -31 137 -33 111 -36 130 -36
250 0 177 20 241 102 329 l29 31 -21 26 c-12 15 -27 27 -34 27 -7 0 -34 -23
-60 -50z m-766 -790 c-12 -23 -30 -27 -30 -6 0 8 8 17 18 19 9 3 18 5 20 6 1
0 -2 -8 -8 -19z m875 -100 c21 -8 25 -14 20 -33 -13 -40 -23 -40 -44 2 -22 43
-19 47 24 31z m-1315 -468 c0 -5 -9 -17 -19 -26 -15 -13 -20 -14 -23 -4 -3 7
2 18 11 25 19 15 31 16 31 5z"/>
<path d="M10814 6853 c-89 -94 -258 -399 -288 -519 -20 -78 -20 -222 -1 -294
8 -30 15 -68 15 -85 0 -43 41 -124 85 -167 21 -21 42 -38 47 -38 4 0 8 -4 8
-10 0 -5 -23 -10 -51 -10 -56 0 -85 -12 -111 -44 -23 -28 -22 -46 2 -46 29 0
108 -77 148 -144 59 -97 109 -225 116 -300 4 -38 13 -84 21 -104 8 -19 15 -58
15 -86 l-1 -51 -49 100 c-52 107 -120 195 -150 195 -10 0 -25 -11 -33 -24 -14
-21 -14 -26 -2 -36 34 -28 153 -320 185 -452 30 -124 27 -232 -10 -381 -54
-216 -105 -344 -164 -414 -35 -41 -34 -62 2 -55 57 10 130 100 189 232 l32 75
1 -65 c0 -41 -13 -122 -36 -220 -54 -228 -104 -326 -200 -388 -117 -75 -112
-104 20 -119 l66 -8 -36 -50 c-49 -69 -91 -160 -109 -236 -19 -82 -19 -236 0
-319 22 -95 113 -270 205 -392 68 -92 84 -108 107 -108 41 0 49 10 51 63 2 47
1 47 -31 47 -26 1 -29 2 -14 11 21 12 22 42 2 59 -9 7 -13 20 -10 28 3 8 -2
23 -10 32 -14 15 -14 27 -4 89 7 39 15 71 18 71 3 0 17 -12 30 -25 18 -20 33
-25 70 -25 91 1 159 56 220 180 24 47 56 102 73 123 l30 39 -33 34 c-30 30
-39 34 -87 34 -92 0 -130 -17 -202 -90 -43 -43 -77 -89 -100 -137 -28 -56 -40
-72 -57 -72 -21 -1 -22 2 -16 47 15 118 111 219 228 241 33 6 66 18 74 26 13
13 13 17 -3 34 -10 10 -31 25 -47 31 l-30 13 34 23 c36 24 97 100 97 119 0 7
-8 19 -18 28 -22 20 -172 24 -219 6 -45 -17 -169 -153 -208 -227 -35 -66 -37
-61 -13 32 13 51 66 134 109 170 47 40 103 63 187 77 70 12 73 13 70 38 -4 35
-72 69 -155 77 l-62 7 25 48 c38 76 82 216 93 302 16 115 13 396 -5 564 -15
138 -15 159 1 320 39 382 -3 758 -100 905 -14 21 -25 39 -25 40 0 2 21 4 48 5
91 3 182 48 182 88 0 22 -4 25 -39 25 -113 0 -233 71 -291 174 -39 67 -39 83
0 23 16 -26 34 -47 40 -47 6 0 34 -25 64 -55 l53 -55 104 1 c57 1 115 4 129 8
58 16 24 101 -61 154 l-51 31 39 17 c42 18 68 43 59 57 -3 5 23 12 58 14 45 4
73 12 95 29 17 12 31 26 31 30 0 3 -13 22 -28 41 -15 20 -40 66 -55 104 -33
83 -90 160 -137 186 -52 27 -121 24 -150 -7 -30 -32 -39 -31 -69 6 -18 23 -21
33 -12 42 16 16 14 47 -4 53 -21 8 -19 18 8 29 15 7 21 17 19 34 -1 14 7 34
18 46 18 19 18 23 5 41 -21 28 -18 35 11 28 24 -6 25 -5 22 36 -2 31 -9 47
-25 57 -20 14 -24 13 -49 -14z m11 -520 c22 -47 59 -108 83 -135 24 -26 39
-48 34 -48 -19 0 -106 65 -133 100 -28 34 -64 144 -53 161 14 23 32 2 69 -78z
m55 -3137 c0 -2 -7 -6 -15 -10 -8 -3 -15 -1 -15 4 0 6 7 10 15 10 8 0 15 -2
15 -4z m-121 -142 c-12 -13 -25 -22 -27 -19 -9 8 29 56 39 49 6 -4 2 -15 -12
-30z"/>
<path d="M1911 6841 c-12 -16 -21 -41 -21 -56 0 -23 4 -26 21 -22 25 7 37 -17
19 -38 -16 -20 -5 -45 20 -45 23 0 26 -10 8 -28 -9 -9 -10 -17 -1 -31 12 -19
11 -120 -1 -139 -11 -17 -21 -15 -54 13 -55 46 -143 26 -208 -46 -22 -25 -164
-284 -164 -299 0 -5 14 -17 32 -26 38 -20 160 -14 187 9 9 8 28 17 44 21 44
11 105 81 149 172 35 72 44 84 65 84 19 0 24 -4 19 -16 -3 -9 -9 -34 -12 -57
-9 -59 -36 -108 -82 -149 -52 -47 -67 -54 -130 -63 -53 -7 -92 -33 -92 -62 0
-7 16 -21 34 -30 l35 -16 -45 -50 c-55 -61 -76 -100 -67 -122 5 -15 20 -17
117 -13 129 5 176 22 200 73 9 18 39 53 68 77 40 34 58 59 73 99 27 75 32 36
6 -50 -37 -120 -133 -200 -293 -240 -40 -10 -74 -25 -77 -32 -2 -8 -8 -17 -14
-20 -17 -11 2 -27 51 -43 75 -25 132 -29 184 -13 l47 15 -29 -37 c-42 -53 -85
-144 -117 -251 l-28 -95 1 -325 c0 -179 2 -361 3 -405 2 -44 0 -231 -4 -417
l-7 -336 27 -109 c15 -59 38 -135 51 -167 13 -33 24 -61 24 -63 0 -2 -12 -3
-27 -3 -39 -1 -151 -53 -169 -79 -17 -24 -14 -26 93 -57 32 -9 89 -32 126 -52
64 -33 71 -40 103 -105 20 -38 33 -71 31 -73 -2 -2 -28 28 -58 68 -30 40 -73
87 -97 105 -43 32 -46 33 -146 33 -98 0 -103 -1 -125 -26 -19 -22 -21 -29 -11
-59 12 -36 58 -81 99 -96 l25 -10 -32 -19 c-17 -10 -38 -31 -48 -45 -13 -19
-25 -25 -55 -25 -42 0 -104 -32 -120 -62 -8 -15 -6 -25 8 -45 10 -14 21 -31
25 -37 5 -6 17 -36 28 -67 27 -75 71 -138 116 -169 54 -36 137 -35 190 2 l38
28 11 -38 c10 -34 11 -115 2 -168 -2 -12 -11 -33 -20 -48 -10 -14 -20 -40 -24
-56 -3 -17 -10 -30 -15 -30 -5 0 -8 -15 -6 -32 3 -31 5 -33 43 -33 32 0 42 5
51 24 7 13 16 26 21 30 5 3 26 35 48 71 21 36 63 98 93 138 48 64 59 87 89
195 33 115 35 128 29 227 -3 58 -13 132 -21 165 -9 33 -17 71 -19 85 -3 26
-66 132 -85 144 -22 14 -10 24 33 30 50 8 111 44 111 66 0 8 -12 21 -27 28
-16 7 -28 17 -28 21 0 5 -13 14 -30 21 -96 40 -179 218 -225 484 -27 156 -21
164 35 51 65 -134 93 -166 148 -171 32 -3 42 0 42 12 0 20 -27 74 -50 99 -10
11 -35 65 -55 120 -20 55 -42 110 -50 122 -8 12 -15 39 -15 60 -1 21 -9 63
-20 93 -14 40 -19 82 -20 156 0 88 5 119 40 240 54 189 99 301 151 376 26 35
25 68 -1 68 -45 0 -118 -98 -175 -235 -16 -38 -32 -74 -37 -79 -4 -6 -8 20 -8
57 0 86 69 367 111 454 35 73 111 160 174 200 25 15 45 31 45 34 0 27 -141 76
-178 61 -9 -3 0 14 20 39 87 106 133 253 132 419 -1 134 -19 218 -68 322 -61
128 -217 346 -248 347 -9 1 -26 -12 -37 -28z m111 -763 c-6 -6 -15 -8 -19 -4
-4 4 -1 11 7 16 19 12 27 3 12 -12z m-94 -3126 c28 -33 65 -103 82 -156 11
-35 11 -41 -6 -53 -26 -19 -31 -17 -38 20 -9 50 -69 169 -107 211 l-33 38 40
-16 c21 -9 49 -29 62 -44z"/>
<path d="M10914 2283 c-12 -16 -24 -39 -27 -53 -14 -59 -144 -206 -164 -187
-3 4 17 41 45 81 53 76 68 131 38 142 -39 15 -193 -108 -243 -194 -54 -92 -78
-227 -59 -338 7 -37 9 -40 34 -36 18 2 42 21 67 51 32 38 65 61 160 109 66 34
142 79 169 102 27 22 51 39 53 37 2 -2 -3 -35 -11 -73 -9 -47 -12 -96 -7 -152
3 -46 3 -88 0 -94 -5 -8 -45 -9 -127 -5 -118 6 -120 6 -141 -19 l-22 -25 33
-13 c18 -8 50 -17 71 -21 l39 -8 -36 -36 c-42 -43 -45 -38 54 -103 30 -21 78
-60 105 -89 53 -54 41 -53 -40 5 l-49 36 -32 -31 -32 -31 -7 41 c-4 22 -4 45
-1 50 4 6 -9 30 -27 55 -19 24 -37 56 -41 70 -9 35 -60 38 -71 4 -3 -13 -9
-18 -11 -11 -3 7 -1 21 5 32 15 27 14 81 -1 81 -17 0 -57 -51 -98 -123 -25
-44 -37 -57 -55 -57 -13 0 -27 5 -30 10 -9 15 -20 12 -49 -15 -15 -14 -35 -25
-45 -25 -11 0 -22 -7 -25 -16 -4 -12 -14 -14 -37 -9 -26 6 -31 4 -36 -14 -5
-20 -6 -20 -18 -4 -11 15 -16 16 -39 4 -22 -12 -28 -12 -51 3 -29 19 -51 11
-84 -30 -18 -23 -24 -25 -68 -18 -26 3 -59 12 -73 19 -59 31 -107 107 -138
221 -10 37 -23 69 -29 71 -6 2 -24 -12 -41 -31 l-30 -34 -51 49 c-28 27 -60
49 -72 49 -12 0 -34 -14 -50 -31 -26 -28 -29 -38 -29 -96 0 -40 -4 -62 -10
-58 -6 4 -10 60 -10 136 l0 130 90 93 c50 51 90 97 90 101 0 5 -10 19 -22 32
-28 29 -12 30 31 0 30 -21 34 -28 37 -83 l5 -59 -60 -38 c-86 -55 -93 -87 -19
-87 55 0 118 32 162 81 34 37 36 42 36 112 0 53 -5 80 -19 103 -22 37 -87 70
-154 79 -43 7 -46 9 -30 21 10 8 43 14 77 14 53 0 68 -5 140 -47 45 -26 83
-48 85 -50 2 -1 -3 -11 -12 -21 -28 -30 -47 -101 -47 -172 0 -62 3 -73 33
-112 18 -24 55 -58 82 -76 43 -29 56 -33 89 -28 22 4 42 9 46 11 4 2 10 63 13
135 6 116 4 137 -14 184 -24 65 -44 85 -91 88 -31 3 -34 5 -24 21 9 16 4 25
-32 57 -24 21 -66 50 -95 64 -44 23 -64 26 -149 26 -98 0 -99 0 -162 -40 -35
-22 -86 -65 -115 -95 l-52 -55 -14 34 c-8 19 -30 44 -49 56 -19 11 -55 43 -80
71 -24 27 -50 49 -58 49 -8 0 -24 -14 -37 -30 -25 -35 -31 -124 -12 -173 17
-43 14 -57 -13 -57 -56 0 -195 -125 -196 -175 0 -22 29 -84 52 -112 7 -9 35
-26 62 -39 59 -27 98 -23 139 14 46 44 31 92 -29 92 -80 0 -109 43 -61 88 24
23 71 30 82 12 3 -5 14 -10 24 -10 22 0 63 -44 89 -95 24 -49 66 -184 59 -191
-3 -3 -31 2 -63 12 -110 32 -244 0 -327 -79 -22 -20 -40 -30 -42 -24 -2 7 -6
24 -9 40 -7 29 -71 107 -89 107 -5 0 -35 -21 -66 -47 -156 -129 -427 -204
-921 -252 -284 -27 -308 -29 -317 -20 -4 4 -48 1 -98 -7 -49 -7 -148 -13 -220
-12 -118 1 -123 1 -60 8 86 10 321 61 464 102 116 32 251 92 251 110 0 6 -7
19 -16 29 -15 16 -23 15 -147 -27 -202 -68 -672 -154 -1007 -185 -151 -14
-644 -5 -687 13 -15 6 -68 15 -118 19 -232 19 -622 103 -814 175 -77 29 -91
30 -98 4 -3 -11 -9 -20 -14 -20 -17 0 -9 -39 11 -50 56 -30 288 -100 380 -115
58 -9 132 -24 165 -33 33 -9 94 -19 135 -23 47 -4 0 -6 -125 -5 -110 2 -209 7
-220 13 -11 5 -56 11 -100 12 -44 1 -216 17 -382 36 -277 32 -313 38 -428 75
-147 48 -282 113 -344 166 l-43 38 -49 -51 c-47 -49 -56 -73 -49 -123 1 -8
-20 8 -47 36 -75 80 -119 99 -233 99 -77 0 -104 -4 -142 -22 -55 -25 -54 -27
-32 76 34 168 102 249 190 227 36 -9 74 -50 74 -79 0 -22 -6 -25 -48 -31 -34
-4 -55 -14 -70 -31 -28 -32 -28 -36 7 -69 25 -24 34 -27 63 -21 51 11 126 55
163 97 29 32 34 43 28 70 -13 70 -54 119 -132 158 -33 17 -54 21 -84 16 l-39
-7 20 26 c37 47 48 145 25 228 -7 25 -19 22 -81 -27 -68 -52 -113 -99 -140
-145 l-20 -33 -15 28 c-21 40 -115 127 -165 153 -34 17 -59 21 -140 21 -85 0
-105 -3 -150 -26 -64 -32 -232 -194 -261 -251 -20 -40 -21 -51 -13 -168 5 -69
13 -130 20 -137 32 -32 150 33 206 115 33 47 36 58 36 120 0 53 -6 79 -26 120
-15 29 -31 55 -37 59 -6 3 26 25 71 47 68 34 91 41 139 41 32 0 66 -7 75 -14
19 -14 14 -26 -12 -26 -39 0 -120 -52 -149 -97 -63 -95 -28 -200 88 -258 42
-21 105 -15 134 13 19 20 19 20 -2 41 -11 11 -32 21 -45 21 -38 0 -76 52 -76
104 0 49 34 96 70 96 25 0 26 -12 0 -35 -34 -31 -24 -56 43 -105 36 -26 74
-65 92 -94 29 -49 30 -52 28 -169 -1 -67 -7 -125 -13 -131 -7 -7 -10 18 -10
80 0 75 -3 94 -18 107 -31 28 -57 20 -115 -36 -56 -54 -56 -54 -62 -28 -4 14
-11 32 -17 38 -14 18 -48 16 -48 -2 0 -7 -6 -18 -13 -22 -8 -4 -17 -30 -21
-57 -11 -90 -83 -174 -193 -230 -46 -23 -60 -20 -66 14 -4 16 -18 36 -31 45
-23 16 -27 15 -55 -1 -29 -17 -31 -17 -50 0 -18 17 -20 16 -39 -4 l-19 -21 -6
21 c-7 27 -53 28 -60 0 -3 -11 -11 -20 -17 -20 -10 0 -10 3 0 15 20 24 -6 48
-43 41 -24 -5 -28 -3 -23 10 8 21 -13 47 -28 36 -6 -5 -25 -12 -41 -15 -30 -5
-33 -2 -85 80 -30 47 -61 92 -68 100 -18 18 -32 7 -32 -25 0 -21 -2 -24 -10
-12 -8 12 -10 10 -10 -9 0 -13 -17 -44 -38 -70 -63 -77 -82 -108 -82 -137 0
-22 -3 -25 -12 -16 -20 20 -34 15 -123 -43 -47 -30 -88 -55 -91 -55 -2 0 2 12
10 28 18 35 136 139 199 175 26 15 47 32 47 38 0 5 -11 20 -25 33 l-25 23 45
18 c43 16 74 49 60 63 -4 4 -66 7 -138 7 l-132 0 -3 143 -3 143 33 -24 c18
-13 49 -30 68 -37 130 -50 243 -129 277 -193 8 -17 18 -26 22 -21 3 5 15 9 26
9 14 0 24 11 33 40 42 128 -29 370 -138 468 -58 53 -150 73 -150 32 0 -8 -4
-15 -10 -15 -22 0 -8 -44 31 -96 22 -31 39 -58 36 -60 -8 -9 -94 95 -137 165
-23 39 -48 71 -54 71 -25 0 -96 -121 -96 -164 0 -14 -6 -29 -12 -33 -7 -4 -21
-17 -30 -29 -16 -19 -17 -27 -3 -109 11 -68 11 -99 3 -136 l-11 -48 -34 29
c-44 39 -72 38 -111 -3 -42 -44 -44 -99 -5 -158 22 -34 25 -44 15 -60 -30 -48
4 -83 77 -78 28 2 51 3 51 2 0 -1 -14 -22 -31 -46 -17 -24 -48 -88 -70 -142
-43 -108 -77 -160 -115 -177 -13 -6 -24 -17 -24 -25 0 -7 -5 -13 -12 -13 -6 0
-3 -9 7 -20 15 -16 31 -20 90 -20 186 0 303 53 408 184 22 28 36 42 32 31 -5
-11 -11 -52 -13 -91 -3 -61 0 -79 21 -121 35 -69 48 -77 108 -70 69 8 79 19
79 83 0 43 -5 58 -26 81 -39 41 -54 84 -54 153 0 33 2 60 5 60 2 0 30 -9 60
-21 51 -19 56 -23 51 -45 -4 -14 8 -76 30 -152 35 -123 36 -131 32 -267 -3
-125 -6 -146 -29 -195 -15 -30 -42 -75 -62 -99 -29 -36 -34 -49 -26 -64 14
-24 64 -15 100 20 71 66 109 193 109 365 l0 108 55 -60 c61 -66 59 -60 44
-150 -15 -93 -40 -143 -105 -207 -52 -51 -55 -58 -39 -69 36 -26 160 24 229
92 39 39 75 104 76 137 0 22 -3 22 66 -10 46 -21 75 -27 129 -27 133 -1 220
50 290 168 64 108 43 127 -69 62 -42 -25 -93 -53 -112 -61 -53 -22 -135 -18
-229 10 -80 25 -84 27 -96 63 -6 20 -29 72 -50 115 -21 42 -38 77 -36 77 1 0
20 -7 42 -15 28 -10 85 -14 185 -14 140 -1 148 0 245 34 114 40 132 41 220 19
84 -21 113 -14 255 66 89 50 110 66 110 84 0 43 -29 56 -126 57 -89 1 -89 1
-54 16 19 9 70 19 112 24 93 9 132 26 136 57 3 20 8 23 30 17 60 -14 111 -88
132 -188 10 -51 9 -66 -9 -125 -40 -134 -112 -191 -247 -200 -71 -4 -74 -4
-83 20 -5 13 -16 29 -24 36 -8 7 -20 32 -27 57 -7 24 -21 51 -31 61 -17 15
-20 15 -51 -3 -46 -27 -56 -60 -34 -118 40 -103 92 -135 223 -135 195 0 313
75 388 245 20 45 25 72 25 140 l0 84 33 -19 c86 -51 410 -130 531 -130 39 0
69 -5 82 -15 14 -10 49 -15 134 -15 63 -1 162 -5 220 -10 189 -18 665 -24 785
-10 86 9 523 30 665 31 70 0 492 -21 605 -31 123 -10 668 -7 775 5 25 3 128 8
230 13 113 4 193 12 207 20 12 6 51 12 86 12 133 0 394 70 529 142 l65 34 -13
-33 c-8 -18 -14 -67 -14 -111 0 -71 4 -87 35 -149 38 -76 96 -137 167 -175 38
-20 57 -23 164 -23 117 0 122 1 169 30 52 32 124 126 125 161 0 11 -9 29 -20
39 -26 23 -25 30 3 32 12 1 50 7 84 14 59 12 66 11 189 -25 126 -37 132 -38
259 -34 107 4 144 9 208 31 42 15 79 27 82 27 2 0 -20 -38 -51 -85 -30 -47
-61 -104 -67 -128 -18 -61 -79 -91 -199 -95 l-87 -4 -110 67 c-106 63 -131 71
-131 39 0 -8 -4 -14 -10 -14 -5 0 -10 -13 -10 -28 0 -44 78 -152 135 -187 44
-27 57 -30 124 -29 69 1 137 18 234 59 14 6 17 2 17 -21 0 -45 43 -125 88
-166 45 -41 111 -78 139 -78 32 0 93 21 93 32 0 6 -24 36 -53 68 -81 87 -130
214 -107 274 9 25 91 145 100 145 3 1 4 -47 2 -106 -4 -127 11 -248 36 -307
24 -54 80 -118 96 -109 6 4 18 6 26 5 9 -1 26 9 39 22 l23 25 -36 43 c-20 23
-49 67 -64 98 -24 50 -27 68 -30 190 -4 130 -3 140 32 266 20 72 36 140 36
150 0 27 89 72 101 52 28 -43 -2 -193 -50 -254 -25 -32 -28 -95 -6 -114 20
-17 112 -6 136 16 23 21 59 127 59 176 0 21 2 38 5 38 2 0 23 -20 46 -45 70
-76 196 -125 321 -125 52 0 137 17 152 31 5 5 -8 27 -31 52 -22 24 -58 74 -80
113 -39 67 -113 220 -113 234 0 3 25 14 55 24 59 18 61 20 44 76 -11 35 -9 41
15 72 20 27 26 46 26 86 0 44 -4 54 -25 68 -32 21 -64 13 -109 -26 l-34 -30
-21 62 c-19 56 -20 64 -6 85 12 17 15 44 13 96 -3 66 -5 72 -25 75 -20 3 -23
10 -23 43 0 45 -62 179 -83 179 -7 0 -22 -12 -33 -27z m-8074 -217 c0 -11 -19
-15 -25 -6 -3 5 1 10 9 10 9 0 16 -2 16 -4z m680 -119 c0 -10 -60 -45 -65 -38
-3 6 7 16 22 24 28 15 43 20 43 14z m7121 -489 c-3 -4 -18 -10 -33 -13 l-28
-7 16 38 c25 59 27 60 40 23 6 -18 9 -37 5 -41z m-8470 27 c17 -36 14 -40 -28
-29 -19 5 -20 9 -11 35 13 37 19 36 39 -6z m6989 27 c0 -4 -5 -13 -12 -20 -9
-9 -7 -16 7 -32 15 -17 30 -20 96 -20 61 0 86 -5 111 -20 l33 -20 -67 0 c-61
0 -69 -2 -98 -31 -26 -26 -29 -34 -18 -45 26 -25 181 -124 195 -124 18 0 17
-6 -12 -48 -14 -20 -25 -45 -25 -55 0 -31 -30 -77 -56 -87 -77 -30 -168 2
-250 85 -80 82 -98 124 -90 205 13 140 66 220 146 220 22 0 40 -4 40 -8z
m-5909 -80 c-17 -22 -38 -45 -48 -53 -15 -11 -15 -10 2 11 29 37 68 80 73 80
2 0 -10 -17 -27 -38z m-201 -75 c0 -13 -87 -64 -95 -55 -5 5 74 66 88 67 4 1
7 -5 7 -12z m7270 -72 c-7 -8 -24 -15 -39 -14 -24 0 -24 1 9 14 45 17 44 17
30 0z"/>
</g>
</svg>
